<svg width="30" height="18" viewBox="0 0 30 18" fill="none" xmlns="http://www.w3.org/2000/svg">
<g clip-path="url(#clip0_180_54)">
<path d="M18.6811 9.02006L6.33828 16.4487C5.75184 16.8017 4.95645 17 4.12709 17C3.29773 17 2.50235 16.8017 1.9159 16.4487C1.32946 16.0958 1 15.6171 1 15.1179C1 14.6188 1.32946 14.14 1.9159 13.7871L14.2588 6.3584M23.1035 11.6817L29 8.13284" stroke="white" stroke-opacity="0.87" stroke-width="2" stroke-linecap="round" stroke-linejoin="round"/>
<path d="M28.2664 8.57686L25.4449 6.87872C24.892 6.54602 24.5813 6.09476 24.5811 5.62419V4.58437L21.2496 2.57925C19.6052 1.59016 17.38 1.03048 15.0553 1.02129L9.83984 1L11.196 1.72752C12.1593 2.24157 12.9306 2.87266 13.4591 3.57919C13.9877 4.28572 14.2614 5.05164 14.2622 5.82647V7.24603L17.2105 9.02047H18.9381C19.72 9.02057 20.4698 9.20758 21.0226 9.54038L23.844 11.2385" stroke="white" stroke-opacity="0.87" stroke-width="2" stroke-linecap="round" stroke-linejoin="round"/>
</g>
<defs>
<clipPath id="clip0_180_54">
<rect width="30" height="18" fill="white"/>
</clipPath>
</defs>
</svg>
