<svg width="30" height="18" viewBox="0 0 30 18" fill="none" xmlns="http://www.w3.org/2000/svg">
<path d="M7 8H11" stroke="white" stroke-width="2" stroke-linecap="round" stroke-linejoin="round"/>
<path d="M9 6V10" stroke="white" stroke-width="2" stroke-linecap="round" stroke-linejoin="round"/>
<path d="M21.916 2H8.084C6.79736 2.00025 5.55652 2.39362 4.60134 3.10407C3.64617 3.81452 3.04448 4.7916 2.9126 5.84643C2.9048 5.90214 2.8996 5.95464 2.8905 6.00929C2.7852 6.73143 2 12.1314 2 13.7857C2 14.6382 2.41089 15.4558 3.14228 16.0586C3.87368 16.6614 4.86566 17 5.9 17C7.2 17 7.85 16.4643 8.5 15.9286L10.3382 14.4136C10.8257 14.0117 11.4869 13.7858 12.1764 13.7857H17.8236C18.5131 13.7858 19.1743 14.0117 19.6618 14.4136L21.5 15.9286C22.15 16.4643 22.8 17 24.1 17C25.1343 17 26.1263 16.6614 26.8577 16.0586C27.5891 15.4558 28 14.6382 28 13.7857C28 12.1304 27.2148 6.73143 27.1095 6.00929C27.1004 5.95571 27.0952 5.90214 27.0874 5.8475C26.9558 4.79248 26.3543 3.81514 25.3991 3.10447C24.4438 2.39379 23.2028 2.00027 21.916 2Z" stroke="white" stroke-width="2" stroke-linecap="round" stroke-linejoin="round"/>
<circle cx="19" cy="9" r="1" fill="white"/>
<circle cx="22" cy="6" r="1" fill="white"/>
</svg>
