<svg width="997" height="763" viewBox="0 0 997 763" fill="none" xmlns="http://www.w3.org/2000/svg">
<g clip-path="url(#clip0_88_2)">
<path d="M236 552.5V560.5L246 557.5L298 502.5V494.5L293.25 490.5L288.5 486.5L278.5 489.5L236 552.5Z" fill="#272222"/>
<path d="M293.25 490.5L288.5 486.5L278.5 489.5L236 552.5V560.5L246 557.5L298 502.5V494.5L293.25 490.5ZM293.25 490.5L308.5 474" stroke="#292F2C" stroke-width="3"/>
<path d="M499.5 755.931C774.262 755.931 997 737.127 997 713.931C997 690.735 774.262 671.931 499.5 671.931C224.738 671.931 2 690.735 2 713.931C2 737.127 224.738 755.931 499.5 755.931Z" fill="#F6D5A8"/>
<path d="M179.5 479.931L187 471.931L196 464.431L204 459.431L209.5 455.931L216 451.931L225 465.931L235 455.931L242.5 441.431L254 427.431L267.5 418.431L284 412.931L297 414.931L306 420.431L316.5 424.931L322 435.931V444.431L319 451.431L315.5 454.931L312.5 465.431L305 470.431H295L287 479.931L277 483.431L266 491.931L263 494.431L253.5 492.931H239.5L225 497.431C222.667 498.764 218 501.231 218 500.431C218 499.631 208.667 498.431 204 497.931L185.5 494.931L179.5 479.931Z" fill="#D78448"/>
<path d="M225 465.931L216 451.931L209.5 455.931L204 459.431L196 464.431L187 471.931L179.5 479.931L185.5 494.931L204 497.931C208.667 498.431 218 499.631 218 500.431C218 501.231 222.667 498.764 225 497.431L239.5 492.931H253.5L263 494.431L266 491.931L277 483.431M225 465.931L235 455.931L242.5 441.431L254 427.431L267.5 418.431L284 412.931L297 414.931L306 420.431M225 465.931L217.5 473.431L208 481.931M277 483.431L287 479.931L295 470.431M277 483.431L278 476.931L281 469.431L284 458.931L286.25 449.181M306 420.431L316.5 424.931L322 435.931V444.431L319 451.431L315.5 454.931M306 420.431L307 423.931C307 423.931 308.576 427.498 309 429.931C309.638 433.591 308.5 439.431 308.5 439.431L307.5 442.931L305.5 450.431M315.5 454.931L312.5 465.431L305 470.431H295M315.5 454.931L311 455.431L307 453.931L305.5 450.431M305.5 450.431L300 454.431L297.5 453.681M295 470.431L296.5 462.431L297 457.931L297.5 453.681M297.5 453.681L295 452.931L293.5 449.181L293 445.431L293.5 440.431L294.5 428.931M286.25 449.181L289 447.431L291 442.931L291.5 437.431V433.931C290.5 432.431 288.4 429.431 288 429.431C287.6 429.431 284.5 429.098 283 428.931L276 430.431L265 432.431M286.25 449.181L283.5 450.931L276 451.431L272.75 450.931M269.5 450.431L272.75 450.931M272.75 450.931L272 459.431L269.5 464.931L266 470.931L261 473.431" stroke="black" stroke-width="3"/>
<path d="M114 349.931L108.5 353.431V360.931L109.5 370.931L120 383.931L135.5 391.431L150.5 389.931L161 382.431L166 372.431L167 363.431L154.5 358.931L133.5 349.431L119 334.431L117 340.931L114 349.931Z" fill="#D6864D" stroke="black" stroke-width="3"/>
<path d="M77.7826 364.243C84.3677 359.849 88.3232 357.209 96 354.931C100.566 353.576 108 352.749 108 352.749C108 352.749 106.931 359.996 108 364.431C108.787 367.698 109.775 369.422 111.426 372.302L111.5 372.431C113.578 376.057 114.981 378.042 118 380.931C121.992 384.752 126.5 387.264 130 388.431C133.5 389.598 136.501 391.647 141 391.931C146.624 392.286 150.5 389.598 155 388.431C159.5 387.264 160.501 383.743 163 379.931C165.011 376.863 167 371.431 167 371.431L181.5 375.431L190 382.431L200 393.931L208.5 408.431C211.833 415.598 218.6 430.031 219 430.431C219.4 430.831 224.167 442.598 226.5 448.431C226.5 448.431 216.207 452.197 210 455.431C203.227 458.96 199.748 461.539 193.5 465.931C187.237 470.334 178 480.931 178 480.931L175.5 465.931L168.5 487.931L155 534.431L146.5 539.431C146.5 539.431 124.756 553.819 109 558.431C94.8442 562.575 85.7486 565.679 71 565.5C57.6074 565.337 50.9812 564.798 38 561.5C25.2414 558.259 6 553.5 6 553.5L14.5 495.931C14.5 495.931 18.5831 476.001 22 463.431C25.8715 449.189 28.3154 441.249 33.5 427.431C36.9139 418.332 43 404.431 43 404.431C43 404.431 48.6536 393.258 53.5 386.931C57.198 382.103 59.5978 379.627 64 375.431C68.9229 370.739 71.8429 368.205 77.5 364.431L77.7826 364.243Z" fill="#EE8A2A"/>
<path d="M175.5 465.931L168.5 487.931L155 534.431L146.5 539.431C146.5 539.431 124.756 553.819 109 558.431C94.8442 562.575 85.7486 565.679 71 565.5C57.6074 565.337 50.9812 564.798 38 561.5C25.2414 558.259 6 553.5 6 553.5L14.5 495.931C14.5 495.931 18.5831 476.001 22 463.431C25.8715 449.189 28.3154 441.249 33.5 427.431C36.9139 418.332 43 404.431 43 404.431C43 404.431 48.6536 393.258 53.5 386.931C57.198 382.103 59.5978 379.627 64 375.431C68.9229 370.739 71.8429 368.205 77.5 364.431C84.256 359.924 88.214 357.242 96 354.931C100.566 353.576 108 352.749 108 352.749C108 352.749 106.931 359.996 108 364.431C108.799 367.746 109.804 369.472 111.5 372.431C113.578 376.057 114.981 378.042 118 380.931C121.992 384.752 126.5 387.264 130 388.431C133.5 389.598 136.501 391.647 141 391.931C146.624 392.286 150.5 389.598 155 388.431C159.5 387.264 160.501 383.743 163 379.931C165.011 376.863 167 371.431 167 371.431L181.5 375.431L190 382.431L200 393.931L208.5 408.431C211.833 415.598 218.6 430.031 219 430.431C219.4 430.831 224.167 442.598 226.5 448.431C226.5 448.431 216.207 452.197 210 455.431C203.227 458.96 199.748 461.539 193.5 465.931C187.237 470.334 178 480.931 178 480.931L175.5 465.931ZM175.5 465.931L180 446.431L182 426.431M55.5 433.931C55.5 433.931 58.0005 444.058 60 450.431C63.1268 460.396 64.9389 466.035 69.5 475.431C73.2442 483.144 80.5 494.431 80.5 494.431C80.5 494.431 90.2927 483.732 97.5 477.931C105.305 471.649 110.157 468.642 119 463.931C127.259 459.531 141 454.431 141 454.431C141 454.431 132.171 439.494 126.5 429.931C122.794 423.681 121.061 419.957 117 413.931C113.028 408.037 106 399.431 106 399.431" stroke="black" stroke-width="5"/>
<path d="M147 485.931L135 456.931C135 456.931 127 457.931 109.5 470.431C92 482.931 89 490.431 89 490.431C89 490.431 95.4479 502.087 100.5 508.931C103.96 513.618 105.704 516.497 110 520.431C114.992 525.003 118.447 526.9 124.5 529.931C133.782 534.578 139.824 535.384 150 537.431C170.869 541.63 204.5 538.431 204.5 538.431L211 544.431C211 544.431 215.204 548.405 218.5 549.931C224.018 552.487 234 551.431 234 551.431C234 551.431 238.17 556.671 242 557.431C243.724 557.773 244.745 557.528 246.5 557.431C249.257 557.279 251.078 557.757 253.5 556.431C255.438 555.371 256.596 554.447 257.5 552.431C258.538 550.115 257.5 545.931 257.5 545.931C257.5 545.931 262.241 544.45 263.5 541.931C264.635 539.661 263.5 533.931 263.5 533.931C263.5 533.931 271.291 535.507 273.5 533.431C276.124 530.966 275 523.431 275 523.431C278.824 522.528 285.504 525.065 287 521.431C288.798 517.064 286.454 511.116 283.5 507.431C278.516 501.214 273.389 498.912 266 495.931C257.801 492.623 252.325 492.904 243.5 493.431C233.43 494.033 218.5 499.931 218.5 499.931L179 493.431L147 485.931Z" fill="#D78448"/>
<path d="M275 523.431C278.824 522.528 285.504 525.065 287 521.431C288.798 517.064 286.454 511.116 283.5 507.431C278.516 501.214 273.389 498.912 266 495.931C257.801 492.623 252.325 492.904 243.5 493.431C233.43 494.033 218.5 499.931 218.5 499.931L179 493.431L147 485.931L135 456.931C135 456.931 127 457.931 109.5 470.431C92 482.931 89 490.431 89 490.431C89 490.431 95.4479 502.087 100.5 508.931C103.96 513.618 105.704 516.497 110 520.431C114.992 525.003 118.447 526.9 124.5 529.931C133.782 534.578 139.824 535.384 150 537.431C170.869 541.63 204.5 538.431 204.5 538.431L211 544.431C211 544.431 215.204 548.405 218.5 549.931C224.018 552.487 234 551.431 234 551.431C234 551.431 238.17 556.671 242 557.431C243.724 557.773 244.745 557.528 246.5 557.431C249.257 557.279 251.078 557.757 253.5 556.431C255.438 555.371 256.596 554.447 257.5 552.431C258.538 550.115 257.5 545.931 257.5 545.931M275 523.431C275 523.431 276.124 530.966 273.5 533.431C271.291 535.507 263.5 533.931 263.5 533.931M275 523.431C275 523.431 269.472 518.215 265.5 515.431C260.063 511.621 250.5 507.431 250.5 507.431M257.5 545.931C257.5 545.931 262.241 544.45 263.5 541.931C264.635 539.661 263.5 533.931 263.5 533.931M257.5 545.931C257.5 545.931 252.21 541.786 248.5 539.931C244.79 538.076 238.5 536.431 238.5 536.431M263.5 533.931C263.5 533.931 260.035 530.627 257.5 528.931C253.578 526.307 246.5 523.931 246.5 523.931" stroke="black" stroke-width="3"/>
<path d="M42.4203 708.431L21.4203 707.931L16.9203 692.431L18.9203 675.931L21.4203 655.431L31.9203 632.431C31.9203 632.431 31.7546 627.327 29.4203 625.931C27.2352 624.625 25.2584 625.423 22.9203 626.431C19.3339 627.977 18.1659 631.181 16 634.431C13.1388 638.724 12.5773 641.245 10.4203 645.931C7.16687 652.999 6.00218 657.312 4.42031 664.931C2.54786 673.949 1.30918 679.288 2.42031 688.431C3.32959 695.913 2.45411 701.36 6.92029 707.431C10.808 712.716 13.414 715.791 19.4203 718.431C29.4369 722.834 38.8684 722.826 49.4203 719.931C53.0571 718.933 57.1187 717.97 58.4203 714.431C59.1647 712.407 57.9203 708.931 57.9203 708.931L42.4203 708.431Z" fill="#FFF7E1" stroke="black" stroke-width="3"/>
<path d="M47.4203 689.931L52.9203 636.931C52.9203 636.931 47.4169 631.654 42.9203 630.931C39.6203 630.401 37.5016 630.636 34.4203 631.931C29.4416 634.024 28.3853 637.917 25.4203 642.431C21.774 647.982 20.3762 651.584 18.4203 657.931C16.2651 664.926 16.2026 669.154 15.4203 676.431C14.6262 683.819 13.1611 688.108 14.4203 695.431C14.9341 698.418 14.7411 700.407 16.4203 702.931C18.2814 705.728 18.4203 706.931 23.4203 707.931C28.4204 708.931 57.9203 707.931 57.9203 707.931L55.4203 702.931L47.4203 689.931Z" fill="#3E423B" stroke="black" stroke-width="3"/>
<path d="M38.4203 681.931C42.1536 682.294 46.9852 684.334 45.9203 687.931C45.3716 689.784 44.0547 690.399 42.4203 691.431C41.682 691.897 41.2397 692.129 40.4203 692.431C37.8552 693.376 35.6371 694.031 33.4203 692.431C32.4065 691.699 32.0058 691.036 31.4203 689.931C30.6664 688.508 30.0031 687.486 30.4203 685.931C30.8497 684.331 31.9818 683.753 33.4203 682.931C35.1493 681.943 36.4384 681.738 38.4203 681.931Z" fill="#FFF7E1" stroke="black" stroke-width="3"/>
<path d="M87.5 563.931C69.9101 566.514 59.5367 565.353 42 562.431C29.8536 560.407 11.5 554.431 11.5 554.431C11.6667 560.431 11.8 572.431 11 572.431C10.2 572.431 15 585.098 17.5 591.431C22.5 597.931 32.5 611.131 32.5 611.931C32.5 612.731 48.5 627.264 56.5 634.431C56.5 634.431 45.8248 641.796 42.5 648.931C39.5024 655.364 40.2584 659.839 40 666.931C39.7579 673.577 41 683.931 41 683.931C41 683.931 50.2171 691.558 56.5 695.931C65.2676 702.034 70.3585 705.332 80 709.931C89.0346 714.241 94.1059 717.413 104 718.931C114.053 720.474 120.398 720.783 130 717.431C136.608 715.124 141.198 713.953 145.5 708.431C149.638 703.12 150.5 691.931 150.5 691.931L148.5 663.431L135.5 614.431L128.5 595.931C128.5 595.931 138.25 595.29 144.5 594.931C152.113 594.494 164 593.931 164 593.931L176 592.931L174 611.931L172 627.431L168.5 647.431L166 670.431C166 670.431 173.295 675.147 178.5 676.931C183.391 678.607 186.361 678.87 191.5 679.431C199.849 680.343 205.365 680.519 213.5 678.431C218.839 677.06 226 673.431 226 673.431L230 657.931L232 647.431L236 626.931C236 626.931 239.411 608.116 240.5 595.931C241.683 582.7 245 570.431 240.5 561.431C238.15 556.732 232.5 551.931 232.5 551.931C232.5 551.931 223.297 552.518 218 550.431C211.181 547.744 204 537.931 204 537.931C204 537.931 183.587 539.914 170.5 539.431C161.879 539.113 148.5 537.431 148.5 537.431C148.5 537.431 132.201 549.26 120.5 554.431C108.234 559.852 100.768 561.983 87.5 563.931Z" fill="#37887F"/>
<path d="M230 657.931L232 647.431L236 626.931C236 626.931 239.411 608.116 240.5 595.931C241.683 582.7 245 570.431 240.5 561.431C238.15 556.732 232.5 551.931 232.5 551.931C232.5 551.931 223.297 552.518 218 550.431C211.181 547.744 204 537.931 204 537.931C204 537.931 183.587 539.914 170.5 539.431C161.879 539.113 148.5 537.431 148.5 537.431C148.5 537.431 132.201 549.26 120.5 554.431C108.234 559.852 100.768 561.983 87.5 563.931C69.9101 566.514 59.5367 565.353 42 562.431C29.8536 560.407 11.5 554.431 11.5 554.431C11.6667 560.431 11.8 572.431 11 572.431C10.2 572.431 15 585.098 17.5 591.431C22.5 597.931 32.5 611.131 32.5 611.931C32.5 612.731 48.5 627.264 56.5 634.431M230 657.931L226 673.431C226 673.431 218.839 677.06 213.5 678.431C205.365 680.519 199.849 680.343 191.5 679.431C186.361 678.87 183.391 678.607 178.5 676.931C173.295 675.147 166 670.431 166 670.431L168.5 647.431L172 627.431L174 611.931L176 592.931M230 657.931C224.333 658.431 212.9 659.431 212.5 659.431C212.1 659.431 201.667 660.431 196.5 660.931L181 658.931M56.5 634.431C56.5 634.431 45.8248 641.796 42.5 648.931C39.5024 655.364 40.2584 659.839 40 666.931C39.7579 673.577 41 683.931 41 683.931C41 683.931 50.2171 691.558 56.5 695.931C65.2676 702.034 70.3585 705.332 80 709.931C89.0346 714.241 94.1059 717.413 104 718.931C114.053 720.474 120.398 720.783 130 717.431C136.608 715.124 141.198 713.953 145.5 708.431C149.638 703.12 150.5 691.931 150.5 691.931L148.5 663.431L135.5 614.431L128.5 595.931M56.5 634.431L67.5 646.931M176 592.931L164 593.931C164 593.931 152.113 594.494 144.5 594.931C138.25 595.29 128.5 595.931 128.5 595.931M176 592.931L177.5 583.931M128.5 595.931C127.5 592.264 125.4 584.931 125 584.931C124.6 584.931 121.833 577.598 120.5 573.931M67.5 646.931L91.5 675.931M67.5 646.931C67.5 646.931 60.6542 656.414 58.5 663.431C57.7354 665.921 57.0664 667.327 57 669.931C56.9549 671.699 57.5 674.431 57.5 674.431" stroke="black" stroke-width="3"/>
<path d="M160.5 715.931L161 706.431L259.5 704.931L262.5 714.431L253.5 720.931L237 723.431L183.5 722.431L168.5 720.931L160.5 715.931Z" fill="#FFF7E1" stroke="black" stroke-width="3"/>
<path d="M180.5 677.431C176.888 676.349 171.5 673.931 171.5 673.931C171.5 673.931 169.391 678.209 168 680.931C166.092 684.664 164.397 686.478 163 690.431C160.966 696.185 161 705.931 161 705.931C161 705.931 173.123 708.525 181 709.431C191.288 710.614 207.5 710.431 207.5 710.431C207.5 710.431 229.5 711.431 242 710.431C249.7 709.815 260 705.431 260 705.431C260 705.431 253.078 696.246 248 692.431C244.011 689.434 237 685.931 237 685.931L216.5 677.931L212 678.931C212 678.931 201.945 680.299 195.5 679.931C189.571 679.593 186.189 679.135 180.5 677.431Z" fill="#3E423B" stroke="black" stroke-width="3"/>
<path d="M221.328 681.944C221.322 682.051 221.291 682.244 221.184 682.56C220.94 683.282 220.421 684.231 219.683 685.311C218.221 687.453 216.122 689.792 214.474 691.337C213.01 692.709 210.836 693.685 208.806 694.094C207.8 694.297 206.899 694.346 206.202 694.266C205.462 694.182 205.165 693.981 205.094 693.905C204.987 693.79 204.816 693.485 204.765 692.856C204.716 692.247 204.793 691.468 205.027 690.593C205.498 688.835 206.54 686.918 208.026 685.525C208.695 684.898 209.799 684.248 211.207 683.658C212.593 683.078 214.175 682.597 215.715 682.263C217.261 681.928 218.71 681.755 219.834 681.761C220.398 681.765 220.831 681.814 221.133 681.887C221.217 681.907 221.281 681.927 221.328 681.944Z" fill="#F8ECCD" stroke="black" stroke-width="3"/>
<path d="M224.479 695.07L224.39 695.133L224.31 695.207C222.846 696.579 220.672 697.556 218.643 697.965C217.636 698.168 216.735 698.216 216.038 698.137C215.298 698.053 215.002 697.852 214.93 697.776C214.823 697.661 214.652 697.356 214.601 696.727C214.552 696.118 214.629 695.339 214.863 694.463C215.334 692.705 216.376 690.789 217.862 689.396C218.531 688.769 219.636 688.119 221.043 687.529C222.429 686.949 224.011 686.467 225.551 686.134C227.097 685.799 228.546 685.625 229.67 685.632C230.234 685.635 230.667 685.684 230.969 685.758C231.148 685.801 231.236 685.842 231.267 685.857C231.436 686.082 231.729 686.909 230.775 688.699C229.833 690.465 227.854 692.722 224.479 695.07Z" fill="#F8ECCD" stroke="black" stroke-width="3"/>
<path d="M99 251.431C105.481 254.964 110.5 266.431 110.5 266.431L103 239.931L113.5 199.431L148 176.931H206L244 179.931L268 196.431C268 196.431 271.243 207.962 273 215.431C273.824 218.936 274.33 220.893 275 224.431C276.063 230.047 276.811 233.218 277 238.931C277.373 250.225 272 267.431 272 267.431C272 267.431 269.352 282.942 268 292.931C266.603 303.252 267.583 309.342 265 319.431C262.437 329.442 260.654 335.281 255 343.931C247.971 354.685 242.179 360.099 231 366.431C217.895 373.853 208.559 375.255 193.5 375.431C179.983 375.589 172.252 373.418 159.5 368.931L159.338 368.874C148.727 365.141 142.382 362.908 133.5 355.931C123.787 348.301 119.85 342.025 113.5 331.431C107.292 321.073 101.5 302.931 101.5 302.931C101.5 302.931 87.1611 306.82 79.5 302.931C69.5327 297.872 67.2788 288.582 66.5 277.431C65.8366 267.932 65.8544 260.224 73 253.931C80.6549 247.189 90.0439 246.549 99 251.431Z" fill="#DE8E51" stroke="#1E1708" stroke-width="5"/>
<path d="M211.5 320.431C211.5 320.431 217.579 319.283 221 317.431C224.057 315.776 226.352 314.992 228 311.931C229.761 308.66 229.896 305.874 228.5 302.431C226.709 298.013 217.5 294.431 217.5 294.431L217 285.931" stroke="#2E1A0D" stroke-width="4" stroke-linecap="round"/>
<path d="M83 265.931L87 265.431L95.5 274.431M95.5 274.431L100 282.931M95.5 274.431L90 277.931L88.5 283.931L91 289.431" stroke="#2E1A0D" stroke-width="4" stroke-linecap="round"/>
<path d="M162.5 231.431C161.103 232.566 160.613 233.516 159.5 234.931C158.896 235.698 158 236.931 158 236.931L165 234.931L169 233.931C169 233.931 171.095 233.149 172.5 232.931C174.237 232.662 175.243 232.931 177 232.931C178.562 232.931 179.446 232.773 181 232.931C182.791 233.114 183.743 233.54 185.5 233.931L190 234.931C190 234.931 192.347 235.665 193.5 234.931C194.461 234.32 194.797 233.551 195 232.431C195.253 231.032 194.854 230.068 194 228.931C193.055 227.672 191.964 227.511 190.5 226.931C188.649 226.197 187.483 226.115 185.5 225.931C183.75 225.769 182.755 225.834 181 225.931C179.235 226.028 178.248 226.164 176.5 226.431C174.532 226.731 173.411 226.871 171.5 227.431C169.931 227.891 169.068 228.26 167.59 228.892L167.5 228.931C165.493 229.79 164.194 230.054 162.5 231.431Z" fill="#302315"/>
<path d="M238 235.431C237.267 236.076 236.649 236.466 236.5 237.431C236.377 238.227 236.519 238.785 237 239.431C237.42 239.996 237.865 240.127 238.5 240.431C240.438 241.358 241.855 240.319 244 240.431C245.96 240.533 247.092 240.474 249 240.931C251.045 241.421 252.139 241.952 254 242.931C255.869 243.914 256.777 244.709 258.5 245.931C260.093 247.061 262.5 248.931 262.5 248.931C262.5 248.931 262.321 245.454 261.5 243.431C260.807 241.724 260.182 240.844 259 239.431C257.668 237.839 256.736 237.069 255 235.931C253.539 234.974 252.672 234.434 251 233.931C249.121 233.365 246 233.431 246 233.431C246 233.431 243.204 233.458 241.5 233.931C240.067 234.329 239.117 234.449 238 235.431Z" fill="#302315"/>
<path d="M190.5 274.4C189.755 280.326 187.891 285.341 185.027 288.866C182.17 292.383 178.309 294.431 173.5 294.431C163.86 294.431 155.5 286.607 155.5 274.431C155.5 268.352 157.961 262.718 161.645 258.605C165.332 254.486 170.205 251.931 175 251.931C179.768 251.931 183.624 254.458 186.31 258.546C188.998 262.636 190.495 268.273 190.5 274.4Z" fill="#FEFADB" stroke="black"/>
<path d="M257 285.4C256.253 291.349 254.758 295.981 252.278 299.121C249.825 302.227 246.37 303.919 241.562 303.931C236.917 302.945 233.43 300.98 231.092 297.795C228.738 294.59 227.5 290.083 227.5 283.931C227.5 277.801 229.118 272.539 231.921 268.822C234.707 265.129 238.67 262.947 243.448 262.931C248.023 263.909 251.391 266.559 253.63 270.431C255.881 274.325 256.996 279.469 257 285.4Z" fill="#FEFADB" stroke="black"/>
<path d="M189.5 279.831C188.303 288.088 184.299 294.331 178.5 294.331C172.701 294.331 167.5 287.839 167.5 279.831C167.5 271.822 176.499 263.597 182 265.431C189.5 267.931 190.5 272.931 189.5 279.831Z" fill="#292A1C"/>
<path d="M257 288.59C255.803 296.847 251.799 303.09 246 303.09C240.201 303.09 235 296.598 235 288.59C235 280.582 243.999 272.356 249.5 274.19C257 276.69 258 281.69 257 288.59Z" fill="#292A1C"/>
<path d="M163 319.931C163 319.931 167.754 327.094 172 330.431C177.222 334.535 181.102 335.648 187.5 337.431C192.262 338.758 195.073 339.027 200 339.431C205.254 339.862 213.5 339.431 213.5 339.431" stroke="#2E1A0D" stroke-width="5" stroke-linecap="round"/>
<path d="M67 240.931C67.5197 246.279 71.5 253.931 71.5 253.931C71.5 253.931 78.8388 249.96 84 249.431C90.5528 248.76 94.9046 249.456 100.5 252.931C105.682 256.15 110.5 264.931 110.5 264.931C110.5 264.931 121.544 259.305 125.5 252.931C130.088 245.54 129 230.931 129 230.931C129 230.931 138.148 227.29 141.5 222.431C146.602 215.037 142 199.431 142 199.431C142 199.431 152.933 202.912 159.5 200.931C165.894 199.002 173 190.431 173 190.431C173 190.431 181.688 201.118 189.5 201.931C197.585 202.773 208.5 193.431 208.5 193.431C208.5 193.431 217.131 205.581 225.5 206.931C233.425 208.21 245 200.431 245 200.431C245 200.431 250.068 210.424 256 213.431C261.598 216.269 272 214.931 272 214.931C272 214.931 276.35 227.526 277 235.931C277.741 245.52 274.5 260.431 274.5 260.431C274.5 260.431 284.198 256.283 287.5 250.931C291.511 244.431 289 231.431 289 231.431C289 231.431 296.91 224.173 298 217.931C299.149 211.352 293.5 201.431 293.5 201.431C293.5 201.431 299.548 190.335 297.5 183.431C294.82 174.397 277.5 169.931 277.5 169.931C277.5 169.931 280.038 152.978 274 145.431C266.721 136.334 245 138.431 245 138.431C245 138.431 235.649 121.366 225 118.431C214.087 115.424 197 125.931 197 125.931C197 125.931 183.659 112.853 173 112.931C160.266 113.025 146.5 131.931 146.5 131.931C146.5 131.931 130.446 124.412 121 127.931C110.826 131.723 104 149.931 104 149.931C104 149.931 87.7236 152.428 82 159.931C75.5779 168.351 79.5 186.931 79.5 186.931C79.5 186.931 68.0318 195.012 66 202.931C63.9156 211.055 70.5 223.931 70.5 223.931C70.5 223.931 66.3444 234.185 67 240.931Z" fill="#633B1F" stroke="#1E1708" stroke-width="5"/>
<path d="M373 145.931C375.801 148.244 378.5 153.431 378.5 153.431L373 105.931L389.5 60.431C426.167 59.431 499.8 57.1311 501 55.9311C502.2 54.7311 520.5 71.0977 529.5 79.4311C529.5 79.4311 532 90.4311 533 96.9311C534 103.431 535.9 116.531 535.5 116.931C535.1 117.331 538.5 154.431 538.5 154.431V172.931C538.5 172.931 537.222 188.111 533.5 196.931C529.308 206.865 521 215.931 517.5 219.431C514 222.931 505.281 229.877 496 233.931C485.227 238.637 478.25 239.529 466.5 239.931C454.081 240.356 446.887 239.054 435 235.431C425.385 232.501 419.759 230.66 411.5 224.931C403.558 219.423 400.115 214.916 394 207.431C389.476 201.894 383.5 192.431 383.5 192.431C383.5 192.431 375.202 198.73 369 198.931C364.361 199.082 361.668 197.973 357.5 195.931C351.543 193.013 348.613 189.994 345 184.431C341.098 178.423 339.812 174.088 339.5 166.931C339.205 160.159 339.204 155.547 343 149.931C345.716 145.913 347.933 143.565 352.5 141.931C356.912 140.352 359.956 140.785 364.5 141.931C368.057 142.829 370.171 143.595 373 145.931Z" fill="#FCC084" stroke="black" stroke-width="3"/>
<path d="M354 160.431L357.5 157.931L363.5 159.431L369.5 165.431M369.5 165.431L376 173.931M369.5 165.431L363.5 171.431V177.431L367.5 181.431" stroke="#302315" stroke-width="3"/>
<path d="M477.5 145.431C477.5 145.431 477.841 149.598 479 151.931C479.991 153.925 480.748 155.058 482.5 156.431C484.93 158.336 487.358 157.333 490 158.931C492.248 160.291 493.993 161.005 495 163.431C495.899 165.595 495.634 167.175 495 169.431C494.383 171.623 493.738 172.96 492 174.431C491.131 175.166 490.51 175.406 489.5 175.931C486.596 177.441 477.5 178.931 477.5 178.931" stroke="#302315" stroke-width="3"/>
<path d="M417 106.431L412.5 113.431L411.5 116.931L417 113.431L420 110.931L424.5 107.431L430 106.931L436.5 107.931L440.5 108.431L443 104.931V102.431L439 99.931L434 99.431C431.5 99.7643 426.4 100.431 426 100.431C425.6 100.431 421.833 102.098 420 102.931L417 106.431Z" fill="#302315"/>
<path d="M492 99.431C491.681 100.558 492 102.431 492 102.431C492 102.431 492.2 105.269 493.5 105.431C494.366 105.539 494.741 104.863 495.5 104.431C496.96 103.601 497.472 102.629 499 101.931C500.465 101.262 501.39 100.973 503 100.931C504.8 100.884 505.757 101.482 507.5 101.931C508.877 102.285 509.659 102.46 511 102.931C512.814 103.568 513.837 103.965 515.5 104.931C516.953 105.774 519 107.431 519 107.431L519.5 104.931C519.5 104.931 519.691 103.388 519.5 102.431C519.243 101.147 518.739 100.513 518 99.431C516.674 97.4893 515.564 96.5579 513.5 95.431C511.874 94.5432 510.823 94.2624 509 93.931C506.695 93.5119 505.321 93.612 503 93.931C500.794 94.2341 499.522 94.5001 497.5 95.431C495.087 96.5415 492.724 96.8757 492 99.431Z" fill="#302315"/>
<path d="M417 106.431L412.5 113.431L411.5 116.931L417 113.431L420 110.931L424.5 107.431L430 106.931L436.5 107.931L440.5 108.431L443 104.931V102.431L439 99.931L434 99.431C431.5 99.7643 426.4 100.431 426 100.431C425.6 100.431 421.833 102.098 420 102.931L417 106.431Z" stroke="#302315"/>
<path d="M492 99.431C491.681 100.558 492 102.431 492 102.431C492 102.431 492.2 105.269 493.5 105.431C494.366 105.539 494.741 104.863 495.5 104.431C496.96 103.601 497.472 102.629 499 101.931C500.465 101.262 501.39 100.973 503 100.931C504.8 100.884 505.757 101.482 507.5 101.931C508.877 102.285 509.659 102.46 511 102.931C512.814 103.568 513.837 103.965 515.5 104.931C516.953 105.774 519 107.431 519 107.431L519.5 104.931C519.5 104.931 519.691 103.388 519.5 102.431C519.243 101.147 518.739 100.513 518 99.431C516.674 97.4893 515.564 96.5579 513.5 95.431C511.874 94.5432 510.823 94.2624 509 93.931C506.695 93.5119 505.321 93.612 503 93.931C500.794 94.2341 499.522 94.5001 497.5 95.431C495.087 96.5415 492.724 96.8757 492 99.431Z" stroke="#302315"/>
<path d="M449.5 146.431C449.5 152.271 447.738 157.539 444.913 161.335C442.087 165.132 438.224 167.431 434 167.431C429.776 167.431 425.913 165.132 423.087 161.335C420.262 157.539 418.5 152.271 418.5 146.431C418.5 140.591 420.262 135.323 423.087 131.527C425.913 127.731 429.776 125.431 434 125.431C438.224 125.431 442.087 127.731 444.913 131.527C447.738 135.323 449.5 140.591 449.5 146.431Z" fill="#FEFEF7" stroke="black"/>
<path d="M521.5 138.431C521.5 144.271 519.738 149.539 516.913 153.335C514.087 157.132 510.224 159.431 506 159.431C501.776 159.431 497.913 157.132 495.087 153.335C492.262 149.539 490.5 144.271 490.5 138.431C490.5 132.591 492.262 127.323 495.087 123.527C497.913 119.731 501.776 117.431 506 117.431C510.224 117.431 514.087 119.731 516.913 123.527C519.738 127.323 521.5 132.591 521.5 138.431Z" fill="#FEFEF7" stroke="black"/>
<path d="M504 159.931C510.075 159.931 515 153.439 515 145.431C515 137.423 510.075 130.931 504 130.931C497.925 130.931 493 137.423 493 145.431C493 153.439 497.925 159.931 504 159.931Z" fill="#2B2E22"/>
<path d="M438 166.931C444.075 166.931 449 160.439 449 152.431C449 144.423 444.075 137.931 438 137.931C431.925 137.931 427 144.423 427 152.431C427 160.439 431.925 166.931 438 166.931Z" fill="#2B2E22"/>
<path d="M438.5 186.931L437.5 187.931C437.5 187.931 436.983 192.247 437.5 194.931C438.293 199.048 439.126 201.976 441.5 205.431C444.707 210.098 451 214.931 451 214.931C451 214.931 457.5 218.431 462 218.931C466.5 219.431 472.5 217.431 474.5 216.931C476.5 216.431 484.5 209.931 484.5 209.931C484.5 209.931 495.507 200.92 492 196.931C491.07 195.874 489 194.931 489 194.931C489 194.931 473.658 196.36 464 194.931C453.675 193.403 438.5 186.931 438.5 186.931Z" fill="#613316" stroke="#302315" stroke-width="3"/>
<path d="M454 214.931C450.714 212.606 446.676 210.871 447.5 206.931C448.539 201.962 455.587 205.65 460.5 206.931C465.492 208.233 470.367 208.538 472 213.431C472.437 214.741 473.5 215.431 472.5 216.931C471.5 218.431 459.933 219.128 454 214.931Z" fill="#E87240"/>
<path d="M488.5 196.931C487.997 199.646 474.632 207.544 461.599 205.132C448.565 202.719 440.497 193.646 441 190.931C441.502 188.216 450.385 192.886 463.419 195.299C476.452 197.711 489.003 194.216 488.5 196.931Z" fill="white"/>
<path d="M349 143.931C349 143.931 343.109 134.508 340.5 127.931C337.025 119.17 335.724 113.829 335 104.431C334.399 96.6339 333.851 91.9501 336 84.431C337.608 78.805 338.998 75.6187 342.5 70.931C345.975 66.28 353.5 60.931 353.5 60.931C353.5 60.931 345.678 59.9559 341.5 57.431C339.595 56.2795 337.498 56.101 337 53.931C336.406 51.3424 338.828 49.9595 341 48.431C343.914 46.3804 346.489 46.3254 350 46.931C352.755 47.4062 356.5 49.931 356.5 49.931C356.5 49.931 354.455 44.5312 354.5 40.931C354.542 37.5212 353.319 33.6609 356.5 32.431C359.351 31.3288 361.3 33.8092 363.5 35.931C366.397 38.7257 367.5 45.431 367.5 45.431C367.5 45.431 373.122 35.9398 378 30.931C384.462 24.2954 389.436 21.9868 397.5 17.431C406.943 12.0965 412.565 9.38687 423 6.43103C433.107 3.56801 439.187 3.15881 449.541 2.46195L450 2.43103C458.962 1.82746 464.034 1.88593 473 2.43103C483.419 3.06455 489.297 3.72421 499.5 5.93103C507.233 7.60375 511.546 8.77803 519 11.431C526.005 13.9241 530.661 14.3281 536.5 18.931C539.863 21.5821 542.332 22.9867 544 26.931C545.675 30.8917 546.448 34.0975 544.5 37.931C542.205 42.4469 537.843 42.4465 533 43.931C528.299 45.3719 520.5 45.431 520.5 45.431C520.5 45.431 530.966 47.823 535.5 52.431C538.812 55.7976 541.372 58.21 541.5 62.931C541.65 68.4553 538.261 71.4114 534 74.931C527.975 79.9085 514.5 79.431 514.5 79.431C507 79.2644 500.206 79.7764 491.5 77.431C482.056 74.8868 476.333 69.5977 469 66.431L475.5 74.931C476.667 78.431 479.864 81.6924 478.5 85.931C476.164 93.1898 465.5 90.431 458.5 88.931C451.5 87.431 443.419 84.7807 434 81.431C424.039 77.8885 410.142 69.1536 409.066 68.4732C409.852 68.9745 417.366 73.8687 419.5 78.931C420.884 82.2145 422.506 84.7017 421 87.931C418.519 93.2517 411.683 88.4054 406 86.931C396.302 84.4149 384.5 72.931 384.5 72.931C384.5 72.931 388.752 77.7632 390.5 81.431C394.045 88.8676 392.629 94.1939 392.5 102.431C392.389 109.503 391.865 113.491 390.5 120.431C389.128 127.405 388.034 131.291 385.5 137.931C383.506 143.155 379.5 150.931 379.5 150.931C379.5 150.931 374.307 144.052 369.5 141.931C365.002 139.946 361.823 139.475 357 140.431C353.655 141.094 349 143.931 349 143.931Z" fill="#DD6D2D" stroke="#69431E" stroke-width="3"/>
<path d="M420 241.931C418.613 244.481 415 247.431 415 247.431L414 254.931C414 254.931 420.258 263.203 426 265.931C431.364 268.479 435.064 268.247 441 268.431C450.531 268.727 457.664 270.023 465 263.931C469.921 259.845 473.5 249.931 473.5 249.931C473.5 249.931 470.743 247.869 470 245.931C469.232 243.925 470 240.431 470 240.431C470 240.431 456.185 239.976 447.5 238.431C437.096 236.58 421.5 230.931 421.5 230.931C421.5 230.931 422.071 238.122 420 241.931Z" fill="#FCC084" stroke="black"/>
<path d="M564.5 226.931C564.5 226.931 572.238 223.833 577 221.431C584.355 217.721 588.876 215.941 595 210.431C604.386 201.986 605.66 193.85 612 182.931C618.143 172.352 621.303 166.257 627 155.431C631.392 147.085 638 133.931 638 133.931L633.5 123.431C633.5 123.431 632.177 117.037 632.5 112.931C632.849 108.492 633.156 105.717 635.5 101.931C637.39 98.8787 639.103 97.5513 642 95.431L642.152 95.3196C645.235 93.0628 647.197 91.6263 651 90.931C652.731 90.6145 655.5 90.681 655.5 90.681C655.5 90.681 655.599 86.1433 656.5 83.431C657.662 79.9348 659.32 78.4012 661.5 75.431C663.305 72.972 663.764 70.7791 666.5 69.431C669.478 67.9638 672.098 67.8199 675 69.431C678.134 71.1707 679.5 77.431 679.5 77.431L685.5 76.931C685.5 76.931 690.164 76.458 692.5 77.931C695.004 79.5099 695.624 81.5511 696.482 84.3724L696.5 84.431C697.241 86.8668 697 90.931 697 90.931L703 90.681C703 90.681 706.357 90.7683 708 91.931C710.138 93.4443 711 97.931 711 97.931C711 97.931 710.774 103.179 710 106.431C709.026 110.523 708.075 112.772 706 116.431C704.208 119.59 700.5 123.931 700.5 123.931C700.5 123.931 698.632 133.043 695.5 137.931C692.521 142.581 690.04 144.786 685.5 147.931C680.758 151.216 672 153.931 672 153.931C672 153.931 669.772 164.345 668 170.931C666.25 177.433 665.106 181.036 663 187.431C660.991 193.532 659.943 196.991 657.5 202.931C655.539 207.699 654.578 210.467 652 214.931C649.616 219.059 647.56 220.91 645 224.931C642.931 228.179 642.182 230.257 640 233.431C638.03 236.296 634.5 240.431 634.5 240.431L586 267.931L564.5 226.931Z" fill="#FBBB7F"/>
<path d="M681.5 110.931C681.5 110.931 682.081 106.902 681.5 104.431C680.779 101.366 679.826 99.5525 677.5 97.431C676.139 96.1898 675.021 95.9702 673.5 94.931C672.404 94.1818 670.75 92.931 670.75 92.931M681.5 110.931C681.5 110.931 679 115.431 677 116.431C675 117.431 671 116.431 671 116.431C671 116.431 665.5 115.431 664.5 114.931M681.5 110.931L685.5 108.931M670.75 92.931C670.75 92.931 669.188 91.5237 668 90.931C665.199 89.5337 663.13 90.3901 660 90.431C658.24 90.454 655.5 90.681 655.5 90.681M670.75 92.931C670.75 92.931 675.717 89.6266 677.5 86.431C679.255 83.287 679.5 77.431 679.5 77.431M664.5 114.931C663.7 114.531 658.833 113.431 656.5 112.931M664.5 114.931C664.5 114.931 666.701 117.798 667.5 119.931C668.401 122.336 668.529 123.863 668.5 126.431C668.457 130.267 666 135.931 666 135.931M685.5 108.931C685.5 108.931 688.052 106.283 689.5 104.431C691.235 102.212 692.107 100.878 693.5 98.431C695.099 95.6221 697 90.931 697 90.931M685.5 108.931V117.931L688 124.431L693 126.431L700.5 123.931M655.5 90.681C655.5 90.681 652.731 90.6145 651 90.931C647.134 91.6377 645.171 93.11 642 95.431C639.103 97.5513 637.39 98.8787 635.5 101.931C633.156 105.717 632.849 108.492 632.5 112.931C632.177 117.037 633.5 123.431 633.5 123.431L638 133.931C638 133.931 631.392 147.085 627 155.431C621.303 166.257 618.143 172.352 612 182.931C605.66 193.85 604.386 201.986 595 210.431C588.876 215.941 584.355 217.721 577 221.431C572.238 223.833 564.5 226.931 564.5 226.931L586 267.931L634.5 240.431C634.5 240.431 638.03 236.296 640 233.431C642.182 230.257 642.931 228.179 645 224.931C647.56 220.91 649.616 219.059 652 214.931C654.578 210.467 655.539 207.699 657.5 202.931C659.943 196.991 660.991 193.532 663 187.431C665.106 181.036 666.25 177.433 668 170.931C669.772 164.345 672 153.931 672 153.931C672 153.931 680.758 151.216 685.5 147.931C690.04 144.786 692.521 142.581 695.5 137.931C698.632 133.043 700.5 123.931 700.5 123.931M655.5 90.681C655.5 90.681 655.599 86.1433 656.5 83.431C657.662 79.9348 659.32 78.4012 661.5 75.431C663.305 72.972 663.764 70.7791 666.5 69.431C669.478 67.9638 672.098 67.8199 675 69.431C678.134 71.1707 679.5 77.431 679.5 77.431M700.5 123.931C700.5 123.931 704.208 119.59 706 116.431C708.075 112.772 709.026 110.523 710 106.431C710.774 103.179 711 97.931 711 97.931C711 97.931 710.138 93.4443 708 91.931C706.357 90.7683 703 90.681 703 90.681L697 90.931M679.5 77.431L685.5 76.931C685.5 76.931 690.164 76.458 692.5 77.931C695.021 79.5208 695.633 81.5794 696.5 84.431C697.241 86.8668 697 90.931 697 90.931" stroke="black" stroke-width="3"/>
<path d="M383.966 375.746L384.246 374.447L382.989 374.013L313.483 350.029C323.241 325.982 330.56 311.311 347.183 283.873C358.756 272.649 368.231 265.227 378.356 259.647C388.078 254.29 398.463 250.594 411.995 246.892C412.317 254.133 416.342 259.494 422.088 263.036C428.301 266.866 436.57 268.62 444.637 268.556C452.701 268.492 460.779 266.609 466.612 262.935C472.062 259.502 475.668 254.395 475.177 247.793L491.128 246.426L491.291 246.412L491.447 246.363L562.234 224.242L585.467 270.233L513.859 304.075L512.921 304.518L513.005 305.552C513.966 317.426 514.89 328.167 515.751 338.182C519.061 376.673 521.449 404.44 521.499 444.63C461.879 453.098 429.251 454.715 371.18 452.495C374.73 422.502 377.581 405.436 383.966 375.746Z" fill="#368981" stroke="black" stroke-width="3"/>
<path d="M307.5 370.931C310.554 363.122 317.5 351.931 317.5 351.931L345.5 360.431C345.5 360.431 348.049 367.365 351 370.931C356.019 376.995 368.5 380.931 368.5 380.931L357.5 392.931L360 395.931C360 395.931 359.219 400.906 360 403.931C360.988 407.759 365.5 412.431 365.5 412.431C365.5 412.431 363.239 417.791 363 421.431C362.686 426.208 365.5 433.431 365.5 433.431C365.5 433.431 353.247 434.421 345.5 433.431C337.278 432.38 332.465 431.533 325 427.931L324.816 427.842C318.238 424.669 314.097 422.671 309.5 416.931C305.952 412.501 304.443 409.421 303 403.931C301.229 397.192 301.896 392.951 302.971 386.114L303 385.931C303.95 379.889 305.272 376.627 307.5 370.931Z" fill="#FBBB7F"/>
<path d="M357.5 392.931L360 395.931C360 395.931 359.219 400.906 360 403.931C360.988 407.759 365.5 412.431 365.5 412.431C365.5 412.431 363.239 417.791 363 421.431C362.686 426.208 365.5 433.431 365.5 433.431C365.5 433.431 353.247 434.421 345.5 433.431C337.278 432.38 332.465 431.533 325 427.931C318.315 424.706 314.14 422.724 309.5 416.931C305.952 412.501 304.443 409.421 303 403.931C301.213 397.132 301.908 392.875 303 385.931C303.95 379.889 305.272 376.627 307.5 370.931C310.554 363.122 317.5 351.931 317.5 351.931L345.5 360.431C345.5 360.431 348.049 367.365 351 370.931C356.019 376.995 368.5 380.931 368.5 380.931L357.5 392.931ZM357.5 392.931C357.5 392.931 353.384 389.373 350.5 387.431C344.922 383.675 335 379.931 335 379.931" stroke="black" stroke-width="5"/>
<path d="M448.146 496.698L447.629 497.056L447.522 497.676L438.216 551.554C408.605 554.531 389.218 553.53 357.623 545.305L375.947 365.523C390.22 347.658 397.983 332.236 400.652 314.842C403.291 297.637 400.921 278.653 395.214 253.694C400.419 250.833 403.994 249.415 410.011 247.753C416.512 268.03 419.224 280.432 422.516 303.146L422.702 304.431H424H495H496.53L496.5 302.901C496.076 281.66 495.514 269.328 493.135 247.102C514.347 242.289 531.274 235.807 561.376 223.795C572.014 241.389 576.681 252.005 582.27 270.869C560.227 287.763 544.486 295.391 511.066 305.495L509.878 305.854L510.008 307.088C517.494 378.159 521.479 435.149 528.43 545.368C506.669 552.455 491.41 554.134 458.988 551.547L458.5 496.418L458.487 495.01L457.082 494.933C454.882 494.812 453.225 494.837 451.828 495.107C450.376 495.387 449.27 495.92 448.146 496.698Z" fill="#1D6F6A" stroke="black" stroke-width="3"/>
<path d="M364.073 643.5L371.073 548L424.573 551.5L409.073 662L364.073 655V643.5Z" fill="#FEBF83"/>
<path d="M466.073 662V551.5H513.073L506.573 653L466.073 662Z" fill="#FEBF83"/>
<path d="M364.073 643.5L371.073 548L424.573 551.5L409.073 662L364.073 655V643.5Z" stroke="black" stroke-width="3"/>
<path d="M466.073 662V551.5H513.073L506.573 653L466.073 662Z" stroke="black" stroke-width="3"/>
<path d="M360.573 661.5V647C360.573 647 366.27 645.009 370.073 644.5C374.137 643.956 380.573 644.5 380.573 644.5C383.239 645.5 388.573 647.6 388.573 648C388.573 648.4 388.239 654.5 388.073 657.5L391.073 661.5H412.573V674.5V695V704L406.073 709.5L392.573 712.5L363.573 714H340.073L325.073 713L315.573 707.5C315.573 707.5 314.284 700.302 315.573 696C317.209 690.537 320.61 688.601 324.573 684.5C329.594 679.302 333.167 677.166 339.073 673C343.809 669.659 346.352 667.516 351.573 665C354.97 663.363 360.573 661.5 360.573 661.5Z" fill="#E77833"/>
<path d="M478.073 660.5C472.764 661.25 464.573 658 464.573 658L461.073 666L459.573 685.5V702.5C459.573 702.5 466.634 706.751 471.573 708.5C477.024 710.43 486.073 711.5 486.073 711.5L534.573 715.5L573.573 713V704C573.573 704 570.972 698.44 569.073 695C566.742 690.778 566.005 687.888 562.573 684.5C558.47 680.449 554.488 680.515 549.573 677.5C544.078 674.129 536.073 668 536.073 668L524.573 658V644.5L509.573 641.5C509.573 641.5 500.193 638.803 494.573 640.5C490.114 641.846 484.573 647 484.573 647V658.5C484.573 658.5 480.703 660.128 478.073 660.5Z" fill="#E77833"/>
<path d="M360.573 661.5V647C360.573 647 366.27 645.009 370.073 644.5C374.137 643.956 380.573 644.5 380.573 644.5C383.239 645.5 388.573 647.6 388.573 648C388.573 648.4 388.239 654.5 388.073 657.5L391.073 661.5H412.573V674.5V695V704L406.073 709.5L392.573 712.5L363.573 714H340.073L325.073 713L315.573 707.5C315.573 707.5 314.284 700.302 315.573 696C317.209 690.537 320.61 688.601 324.573 684.5C329.594 679.302 333.167 677.166 339.073 673C343.809 669.659 346.352 667.516 351.573 665C354.97 663.363 360.573 661.5 360.573 661.5Z" stroke="black" stroke-width="3"/>
<path d="M478.073 660.5C472.764 661.25 464.573 658 464.573 658L461.073 666L459.573 685.5V702.5C459.573 702.5 466.634 706.751 471.573 708.5C477.024 710.43 486.073 711.5 486.073 711.5L534.573 715.5L573.573 713V704C573.573 704 570.972 698.44 569.073 695C566.742 690.778 566.005 687.888 562.573 684.5C558.47 680.449 554.488 680.515 549.573 677.5C544.078 674.129 536.073 668 536.073 668L524.573 658V644.5L509.573 641.5C509.573 641.5 500.193 638.803 494.573 640.5C490.114 641.846 484.573 647 484.573 647V658.5C484.573 658.5 480.703 660.128 478.073 660.5Z" stroke="black" stroke-width="3"/>
<path d="M365.573 661.5H359.073L350.073 667.5L350.573 670.5H356.573L365.573 674L371.573 676.5H375.073L377.573 673L376.073 668.5L371.573 664.5L365.573 661.5Z" fill="#F9F4D8" stroke="black" stroke-width="3"/>
<path d="M512.073 658C512.073 658 508.051 657.449 505.573 658C501.449 658.916 496.83 659.784 496.573 664C496.501 665.186 496.405 666.018 497.073 667C498.391 668.937 500.477 671.952 502.573 673C504.573 674 507.578 675.583 511.073 677C513.425 677.954 519.073 676.5 519.073 676.5L521.573 673L524.073 669.5C524.073 669.5 523.543 666.578 522.573 665C521.341 662.997 520.01 662.332 518.073 661C515.914 659.516 512.073 658 512.073 658Z" fill="#F9F4D8" stroke="black" stroke-width="3"/>
<path d="M340.573 672L337.073 677L339.573 679.5H347.073H353.573C355.239 680.667 358.673 683 359.073 683C359.473 683 360.906 684.333 361.573 685L364.573 684.5L366.073 679.5V674.5L360.573 670L349.073 668L340.573 672Z" fill="#F9F4D8" stroke="black" stroke-width="3"/>
<path d="M336.5 701L315 698.5V708.5L329 712.5H358H389.5L404 709.5L411 702.5V695.5L395.5 698.5L371.5 700L336.5 701Z" fill="#FFF4D3" stroke="black" stroke-width="3"/>
<path d="M459 704C457 700 459 693 459 693L474.5 697L513 700L549.5 701.5H572L570 714C570 714 514.5 712.5 474.5 709.5C474.5 709.5 461 708 459 704Z" fill="#FFF4D3" stroke="black" stroke-width="3"/>
<path d="M677.589 518.696V518.785L677.599 518.873C678.257 524.414 678.221 532.49 674.628 539.123C671.12 545.599 664.054 551 649.931 551H649.923H649.914L517.645 552.497C499.492 547.481 490.435 533.686 490.431 522.507V522.504V522.47L490.433 522.338L490.438 521.818L490.458 519.821C490.474 518.088 490.499 515.583 490.528 512.493C490.586 506.315 490.663 497.801 490.74 488.459C490.895 469.776 491.05 447.772 491.05 434.51C491.05 421.622 495.378 413.257 501.714 408.078C508.104 402.857 516.743 400.707 525.63 400.706C534.729 400.706 568.429 400.706 599.855 400.706H641.927H655.385H659.117H660.096H660.346H660.389C664.69 400.952 667.835 402.47 670.184 404.708C672.568 406.98 674.211 410.071 675.33 413.55C677.578 420.541 677.589 428.689 677.589 433.764V433.967V518.696Z" fill="#F1AC40" stroke="black" stroke-width="3"/>
<path d="M685.434 351.857C684.223 358.957 680.166 366.032 674.836 371.725C669.525 377.398 663.092 381.549 657.251 383H519.11C509.514 380.674 503.352 377.832 499.097 373.244C494.819 368.631 492.281 362.052 490.42 351.806L490.412 351.707C490.403 351.593 490.39 351.423 490.372 351.2C490.338 350.755 490.288 350.099 490.226 349.258C490.103 347.575 489.933 345.151 489.748 342.188C489.377 336.261 488.946 328.185 488.699 319.582C488.453 310.975 488.393 301.86 488.763 293.851C489.136 285.788 489.939 279.018 491.347 274.996C497.165 258.373 508.334 245.899 527.617 243.489C537.489 242.255 567.855 242.25 595.914 242.563C609.909 242.719 623.279 242.953 633.151 243.148C638.087 243.246 642.149 243.334 644.976 243.397C646.389 243.429 647.494 243.455 648.245 243.472L649.102 243.493L649.321 243.498L649.376 243.499C658.759 243.962 667.435 247.933 673.949 253.671C680.48 259.424 684.733 266.857 685.438 274.145C686.178 281.795 686.182 301.198 685.994 318.797C685.9 327.572 685.759 335.865 685.642 341.964C685.584 345.013 685.531 347.513 685.493 349.252C685.474 350.121 685.459 350.799 685.448 351.26L685.436 351.785L685.434 351.857Z" fill="#F7AB39" stroke="black" stroke-width="3"/>
<path d="M413.034 392.248L413.058 392.359L413.098 392.465C414.893 397.173 415.947 400.898 416.397 404.837C416.837 408.692 416.708 412.821 416.058 418.353C408.118 428.891 401.432 434.376 393.833 435.901C386.2 437.433 377.256 435.052 364.577 428.791C362.826 425.672 362.022 423.37 361.861 421.193C361.693 418.926 362.21 416.623 363.403 413.461L363.664 412.77L363.276 412.142C360.77 408.086 359.507 405.016 359.119 401.961C358.754 399.083 359.148 396.08 360.231 392.103C366.307 390.106 370.753 389.195 374.755 389.217C378.891 389.24 382.672 390.26 387.404 392.308L388.892 392.951L389.419 391.418C392.036 383.803 397.227 380.046 401.83 379.993C406.301 379.942 411.124 383.413 413.034 392.248Z" fill="#F7AD33" stroke="black" stroke-width="3"/>
<path d="M410.5 390.431C410.5 395.402 406.471 399.431 401.5 399.431C396.529 399.431 392.5 395.402 392.5 390.431C392.5 385.46 396.529 381.431 401.5 381.431C406.471 381.431 410.5 385.46 410.5 390.431Z" stroke="black" stroke-width="3"/>
<path d="M381.048 431.268C381.77 412.508 381.086 398.851 378.193 380.518L384.656 378.722C386.163 382.088 387.633 385.255 389.058 388.324C394.699 400.479 399.629 411.103 403.348 426.473C400.081 429.747 397.262 431.529 393.975 432.239C390.666 432.953 386.698 432.623 381.048 431.268Z" fill="#454A43" stroke="black" stroke-width="3"/>
<path d="M383.2 349.831L383.574 349.332L383.484 348.715L379.799 323.375C389.58 325.853 396.63 331.466 400.146 338.827C403.9 346.686 403.746 356.79 398.196 367.686C389.282 381.667 365.993 384.317 350.04 370.847C344.416 364.714 342.438 357.22 343.851 349.449C345.167 342.208 349.45 334.644 356.648 327.751L363.043 353.789L363.248 354.623L364.072 354.869C368.271 356.12 371.714 356.788 374.821 356.101C378.016 355.395 380.574 353.33 383.2 349.831Z" fill="#F9AE3D" stroke="black" stroke-width="3"/>
<path d="M411.5 391.931C408.585 400.537 405.776 403.331 396.5 400.931C400.92 408.17 402.813 413.861 405.5 425.931C415.574 419.276 417.668 412.499 411.5 391.931Z" fill="#D98945"/>
<path d="M675 532.931L676 424.931C676 412.431 670 404.931 658.5 404.931H642V526.931C638.373 535.717 632.586 540.32 623 546.931C661 546.931 671.5 549.931 675 532.931Z" fill="#DF8615"/>
<path d="M524 433.431H608.5C613.194 433.431 617 437.237 617 441.931V510.931C617 515.625 613.194 519.431 608.5 519.431H524C519.306 519.431 515.5 515.625 515.5 510.931V441.931C515.5 437.237 519.306 433.431 524 433.431Z" fill="#DC8215" stroke="black" stroke-width="3"/>
<path d="M543.5 458.931C543.5 464.998 539.45 469.431 535 469.431C530.55 469.431 526.5 464.998 526.5 458.931C526.5 452.864 530.55 448.431 535 448.431C539.45 448.431 543.5 452.864 543.5 458.931Z" fill="#DC1E1E" stroke="black" stroke-width="3"/>
<path d="M573.5 459.931C573.5 465.998 569.45 470.431 565 470.431C560.55 470.431 556.5 465.998 556.5 459.931C556.5 453.864 560.55 449.431 565 449.431C569.45 449.431 573.5 453.864 573.5 459.931Z" fill="#A88F87" stroke="black" stroke-width="3"/>
<path d="M602.5 459.931C602.5 465.998 598.45 470.431 594 470.431C589.55 470.431 585.5 465.998 585.5 459.931C585.5 453.864 589.55 449.431 594 449.431C598.45 449.431 602.5 453.864 602.5 459.931Z" fill="#A88F87" stroke="black" stroke-width="3"/>
<path d="M600.5 495.931C600.5 501.998 596.45 506.431 592 506.431C587.55 506.431 583.5 501.998 583.5 495.931C583.5 489.864 587.55 485.431 592 485.431C596.45 485.431 600.5 489.864 600.5 495.931Z" fill="#F7AF3C" stroke="black" stroke-width="3"/>
<path d="M569 486.431H560C558.067 486.431 556.5 487.998 556.5 489.931V500.931C556.5 502.864 558.067 504.431 560 504.431H569C570.933 504.431 572.5 502.864 572.5 500.931V489.931C572.5 487.998 570.933 486.431 569 486.431Z" fill="#F9B040" stroke="black" stroke-width="3"/>
<path d="M541 486.431H532C530.067 486.431 528.5 487.998 528.5 489.931V500.931C528.5 502.864 530.067 504.431 532 504.431H541C542.933 504.431 544.5 502.864 544.5 500.931V489.931C544.5 487.998 542.933 486.431 541 486.431Z" fill="#F7AA34" stroke="black" stroke-width="3"/>
<path d="M552.5 347.931C570.979 358.812 579.869 357.753 593.5 344.931" stroke="black" stroke-width="4" stroke-linecap="round"/>
<path d="M685.5 276.228C679.5 255.228 667 241.728 640 244.228C654.805 250.553 658.53 256.148 664 271.728V351.728C661.46 366.333 657.592 373.318 643 381.728H661.5C675.488 374.816 680.952 368.467 685.5 351.728V276.228Z" fill="#B96E16"/>
<path d="M697 309.431C697 312.441 696.202 315.12 694.966 317.016C693.723 318.922 692.122 319.931 690.5 319.931C688.878 319.931 687.277 318.922 686.034 317.016C684.798 315.12 684 312.441 684 309.431C684 306.421 684.798 303.742 686.034 301.846C687.277 299.94 688.878 298.931 690.5 298.931C692.122 298.931 693.723 299.94 694.966 301.846C696.202 303.742 697 306.421 697 309.431Z" fill="#222222" stroke="black" stroke-width="2"/>
<mask id="mask0_88_2" style="mask-type:luminance" maskUnits="userSpaceOnUse" x="473" y="287" width="18" height="58">
<path d="M490.21 287.498C488.029 287.087 485.857 287.464 483.825 288.605C481.793 289.747 479.944 291.629 478.391 294.136C476.838 296.644 475.613 299.725 474.791 303.191C473.969 306.657 473.568 310.435 473.611 314.296C473.654 318.157 474.141 322.019 475.043 325.646C475.944 329.274 477.241 332.591 478.853 335.395C480.466 338.2 482.361 340.433 484.423 341.958C486.485 343.483 488.67 344.269 490.846 344.267L489.67 315.802L490.21 287.498Z" fill="white"/>
</mask>
<g mask="url(#mask0_88_2)">
<path d="M490.21 287.498C488.029 287.087 485.857 287.464 483.825 288.605C481.793 289.747 479.944 291.629 478.391 294.136C476.838 296.644 475.613 299.725 474.791 303.191C473.969 306.657 473.568 310.435 473.611 314.296C473.654 318.157 474.141 322.019 475.043 325.646C475.944 329.274 477.241 332.591 478.853 335.395C480.466 338.2 482.361 340.433 484.423 341.958C486.485 343.483 488.67 344.269 490.846 344.267L489.67 315.802L490.21 287.498Z" fill="#C47315" stroke="black" stroke-width="6"/>
</g>
<path d="M590.25 239.431V207.431H599.25V239.431H590.25Z" fill="#38352C" stroke="black" stroke-width="3"/>
<path d="M555.5 553.431H512.5V574.431H555.5V553.431Z" fill="#DC8215" stroke="black" stroke-width="3"/>
<path d="M555.5 575.431H512.5V601.431H555.5V575.431Z" fill="#DC8215" stroke="black" stroke-width="3"/>
<path d="M555.5 602.431H512.5V628.431H555.5V602.431Z" fill="#DC8215" stroke="black" stroke-width="3"/>
<path d="M555.5 628.431H512.5V654.431H555.5V628.431Z" fill="#DC8215" stroke="black" stroke-width="3"/>
<path d="M555.5 653.431H512.5V679.431H555.5V653.431Z" fill="#DC8215" stroke="black" stroke-width="3"/>
<mask id="mask1_88_2" style="mask-type:luminance" maskUnits="userSpaceOnUse" x="484" y="674" width="93" height="45">
<path d="M577 718.931C577 713.153 575.797 707.431 573.46 702.093C571.124 696.755 567.698 691.904 563.38 687.818C559.063 683.733 553.936 680.492 548.295 678.28C542.653 676.069 536.606 674.931 530.5 674.931C524.394 674.931 518.347 676.069 512.705 678.28C507.064 680.492 501.937 683.733 497.62 687.818C493.302 691.904 489.876 696.755 487.54 702.093C485.203 707.431 484 713.153 484 718.931H530.5H577Z" fill="white"/>
</mask>
<g mask="url(#mask1_88_2)">
<path d="M577 718.931C577 713.153 575.797 707.431 573.46 702.093C571.124 696.755 567.698 691.904 563.38 687.818C559.063 683.733 553.936 680.492 548.295 678.28C542.653 676.069 536.606 674.931 530.5 674.931C524.394 674.931 518.347 676.069 512.705 678.28C507.064 680.492 501.937 683.733 497.62 687.818C493.302 691.904 489.876 696.755 487.54 702.093C485.203 707.431 484 713.153 484 718.931H530.5H577Z" fill="#F6A936" stroke="black" stroke-width="6"/>
</g>
<path d="M551.437 715.931C550.646 695.235 547 687.931 530 677.931C549 678.431 569.119 688.073 573.937 715.931H551.437Z" fill="#DA8419"/>
<path d="M650.5 553.431H607.5V574.431H650.5V553.431Z" fill="#DC8215" stroke="black" stroke-width="3"/>
<path d="M650.5 575.431H607.5V601.431H650.5V575.431Z" fill="#DC8215" stroke="black" stroke-width="3"/>
<path d="M650.5 602.431H607.5V628.431H650.5V602.431Z" fill="#DC8215" stroke="black" stroke-width="3"/>
<path d="M650.5 628.431H607.5V654.431H650.5V628.431Z" fill="#DC8215" stroke="black" stroke-width="3"/>
<path d="M650.5 653.431H607.5V679.431H650.5V653.431Z" fill="#DC8215" stroke="black" stroke-width="3"/>
<mask id="mask2_88_2" style="mask-type:luminance" maskUnits="userSpaceOnUse" x="579" y="674" width="93" height="45">
<path d="M672 718.931C672 713.153 670.797 707.431 668.46 702.093C666.124 696.755 662.698 691.904 658.38 687.818C654.063 683.733 648.936 680.492 643.295 678.28C637.653 676.069 631.606 674.931 625.5 674.931C619.394 674.931 613.347 676.069 607.705 678.28C602.064 680.492 596.937 683.733 592.62 687.818C588.302 691.904 584.876 696.755 582.54 702.093C580.203 707.431 579 713.153 579 718.931H625.5H672Z" fill="white"/>
</mask>
<g mask="url(#mask2_88_2)">
<path d="M672 718.931C672 713.153 670.797 707.431 668.46 702.093C666.124 696.755 662.698 691.904 658.38 687.818C654.063 683.733 648.936 680.492 643.295 678.28C637.653 676.069 631.606 674.931 625.5 674.931C619.394 674.931 613.347 676.069 607.705 678.28C602.064 680.492 596.937 683.733 592.62 687.818C588.302 691.904 584.876 696.755 582.54 702.093C580.203 707.431 579 713.153 579 718.931H625.5H672Z" fill="#F6A936" stroke="black" stroke-width="6"/>
</g>
<path d="M646.437 715.931C645.646 695.235 642 687.931 625 677.931C644 678.431 664.119 688.073 668.937 715.931H646.437Z" fill="#DA8419"/>
<path d="M555.931 305.5C555.931 321.44 544.325 334 530.431 334C516.538 334 504.931 321.44 504.931 305.5C504.931 289.56 516.538 277 530.431 277C544.325 277 555.931 289.56 555.931 305.5Z" fill="#FDFCDB" stroke="black" stroke-width="4"/>
<path d="M542.431 306.5C542.431 314.851 536.548 321.5 529.431 321.5C522.314 321.5 516.431 314.851 516.431 306.5C516.431 298.149 522.314 291.5 529.431 291.5C536.548 291.5 542.431 298.149 542.431 306.5Z" fill="#312915" stroke="black"/>
<path d="M639.931 305.5C639.931 321.44 628.325 334 614.431 334C600.538 334 588.931 321.44 588.931 305.5C588.931 289.56 600.538 277 614.431 277C628.325 277 639.931 289.56 639.931 305.5Z" fill="#FDFCDB" stroke="black" stroke-width="4"/>
<path d="M626.431 306.5C626.431 314.851 620.548 321.5 613.431 321.5C606.314 321.5 600.431 314.851 600.431 306.5C600.431 298.149 606.314 291.5 613.431 291.5C620.548 291.5 626.431 298.149 626.431 306.5Z" fill="#312915" stroke="black"/>
<path d="M703.431 309.5C703.431 317.386 701.261 324.459 697.832 329.518C694.396 334.585 689.808 337.5 684.931 337.5C680.054 337.5 675.466 334.585 672.03 329.518C668.601 324.459 666.431 317.386 666.431 309.5C666.431 301.614 668.601 294.541 672.03 289.482C675.466 284.415 680.054 281.5 684.931 281.5C689.808 281.5 694.396 284.415 697.832 289.482C701.261 294.541 703.431 301.614 703.431 309.5Z" fill="#B96E16" stroke="black" stroke-width="3"/>
<path d="M696.431 431.5C696.431 448.41 685.605 461.5 672.931 461.5C660.257 461.5 649.431 448.41 649.431 431.5C649.431 414.59 660.257 401.5 672.931 401.5C685.605 401.5 696.431 414.59 696.431 431.5Z" fill="#E28919"/>
<path d="M696.431 431.5C696.431 448.41 685.605 461.5 672.931 461.5C660.257 461.5 649.431 448.41 649.431 431.5C649.431 414.59 660.257 401.5 672.931 401.5C685.605 401.5 696.431 414.59 696.431 431.5Z" stroke="black" stroke-width="3"/>
<path d="M696.431 431.5C696.431 448.41 685.605 461.5 672.931 461.5C660.257 461.5 649.431 448.41 649.431 431.5C649.431 414.59 660.257 401.5 672.931 401.5C685.605 401.5 696.431 414.59 696.431 431.5Z" stroke="black" stroke-width="3"/>
<path d="M682.431 435.5C682.431 438.673 681.503 441.483 680.078 443.462C678.651 445.444 676.811 446.5 674.931 446.5C673.051 446.5 671.211 445.444 669.784 443.462C668.359 441.483 667.431 438.673 667.431 435.5C667.431 432.327 668.359 429.517 669.784 427.538C671.211 425.556 673.051 424.5 674.931 424.5C676.811 424.5 678.651 425.556 680.078 427.538C681.503 429.517 682.431 432.327 682.431 435.5Z" fill="#3D290B"/>
<path d="M682.431 435.5C682.431 438.673 681.503 441.483 680.078 443.462C678.651 445.444 676.811 446.5 674.931 446.5C673.051 446.5 671.211 445.444 669.784 443.462C668.359 441.483 667.431 438.673 667.431 435.5C667.431 432.327 668.359 429.517 669.784 427.538C671.211 425.556 673.051 424.5 674.931 424.5C676.811 424.5 678.651 425.556 680.078 427.538C681.503 429.517 682.431 432.327 682.431 435.5Z" stroke="black" stroke-width="3"/>
<path d="M682.431 435.5C682.431 438.673 681.503 441.483 680.078 443.462C678.651 445.444 676.811 446.5 674.931 446.5C673.051 446.5 671.211 445.444 669.784 443.462C668.359 441.483 667.431 438.673 667.431 435.5C667.431 432.327 668.359 429.517 669.784 427.538C671.211 425.556 673.051 424.5 674.931 424.5C676.811 424.5 678.651 425.556 680.078 427.538C681.503 429.517 682.431 432.327 682.431 435.5Z" stroke="black" stroke-width="3"/>
<path d="M594 209.5C600.904 209.5 606.5 203.904 606.5 197C606.5 190.096 600.904 184.5 594 184.5C587.096 184.5 581.5 190.096 581.5 197C581.5 203.904 587.096 209.5 594 209.5Z" fill="#FAAD43" stroke="black" stroke-width="3"/>
<path d="M623.431 383.5H555.431V400.5H623.431V383.5Z" fill="#DC8215" stroke="black" stroke-width="3"/>
<path d="M771.577 227.401C781.373 254.065 795.044 259.963 812.9 260.28L771.577 227.401ZM805.008 229.693C827.371 258.176 843.484 267.095 873 277.294C883.973 307.349 888.067 323.611 885.5 349.794C851.216 401.047 822.824 404.6 764.935 388.263M740.69 264.707L740.697 264.699L740.703 264.69C750.671 251.298 757.687 243.002 770.447 228.669C775.403 241.864 781.396 250.123 788.565 255.096C796.162 260.366 804.864 261.794 814.5 261.794H816.639L815.91 259.783L806.601 234.091C816.208 245.899 824.819 254.182 834.074 260.629C844.983 268.229 856.709 273.224 871.835 278.478C882.54 307.876 886.484 323.83 884.043 349.273C866.907 374.811 851.416 388.092 833.146 393.074C814.906 398.049 793.599 394.845 764.554 386.596C762.454 377.129 760.85 365.096 759.494 349.663L759.488 349.596L759.477 349.531C754.218 320.093 754.195 304.179 740.69 282.5C740.563 278.105 738.362 276.299 739 273.5C739.646 270.662 738.463 267.61 740.69 264.707ZM740.703 275C740.432 276.186 739.116 282.691 739 284C735.279 273.817 727.283 257.232 727.785 248.236C728.398 237.246 732.921 225.442 743.65 209.274C761.255 192.985 777.302 183.969 796.927 180.368C816.636 176.751 840.084 178.57 872.552 184.239C892.294 193.262 905.899 201.803 915.569 214.11C925.252 226.434 931.118 242.701 935.004 267.439C936.168 299.174 938.989 313.292 948.169 330.985L948.208 331.06L948.255 331.131C959.92 348.504 966.386 365.226 966.75 379.458C967.095 392.891 962.018 404.147 950.563 411.839L945.974 387.516L943.003 387.884C943.526 396.574 942.486 403.462 939.655 408.97C936.838 414.449 932.165 418.722 925.11 422.044C910.866 428.749 887.276 431.42 850.964 432.295L850.747 432.3L850.54 432.367C839.28 435.998 830.53 437.5 821.453 435.995C812.352 434.486 802.744 429.924 789.85 421.059L789.69 420.949L789.508 420.883C783.075 418.568 778.134 415.429 774.19 410.35C770.537 405.645 767.664 399.179 765.342 389.935C793.64 397.869 815.192 401.081 833.936 395.969C853.296 390.689 869.359 376.623 886.747 350.628L886.956 350.315L886.993 349.941C889.592 323.429 885.413 306.919 874.409 276.78L874.164 276.11L873.49 275.877C858.121 270.566 846.519 265.643 835.788 258.167C825.061 250.694 815.126 240.613 803.195 224.888L800.59 226.305L812.352 258.768C803.907 258.558 796.617 257.03 790.275 252.631C783.396 247.859 777.418 239.558 772.415 225.298L771.577 224.888L769.881 224.796C756.019 240.331 748.769 248.828 738.303 262.89C735.868 266.066 741.461 271.671 740.703 275Z" fill="#794823"/>
<path d="M771.577 227.401C781.373 254.065 795.044 259.963 812.9 260.28M805.008 229.693C827.371 258.176 843.484 267.095 873 277.294C883.973 307.349 888.067 323.611 885.5 349.794C851.216 401.047 822.824 404.6 764.935 388.263M740.69 264.707L740.697 264.699L740.703 264.69C750.671 251.298 757.687 243.002 770.447 228.669C775.403 241.864 781.396 250.123 788.565 255.096C796.162 260.366 804.864 261.794 814.5 261.794H816.639L815.91 259.783L806.601 234.091C816.208 245.899 824.819 254.182 834.074 260.629C844.983 268.229 856.709 273.224 871.835 278.478C882.54 307.876 886.484 323.83 884.043 349.273C866.907 374.811 851.416 388.092 833.146 393.074C814.906 398.049 793.599 394.845 764.554 386.596C762.454 377.129 760.85 365.096 759.494 349.663L759.488 349.596L759.477 349.531C754.218 320.093 754.195 304.179 740.69 282.5C740.563 278.105 738.362 276.299 739 273.5C739.646 270.662 738.463 267.61 740.69 264.707ZM740.703 275C740.432 276.186 739.116 282.691 739 284C735.279 273.817 727.283 257.232 727.785 248.236C728.398 237.246 732.921 225.442 743.65 209.274C761.255 192.985 777.302 183.969 796.927 180.368C816.636 176.751 840.084 178.57 872.552 184.239C892.294 193.262 905.899 201.803 915.569 214.11C925.252 226.434 931.118 242.701 935.004 267.439C936.168 299.174 938.989 313.292 948.169 330.985L948.208 331.06L948.255 331.131C959.92 348.504 966.386 365.226 966.75 379.458C967.095 392.891 962.018 404.147 950.563 411.839L945.974 387.516L943.003 387.884C943.526 396.574 942.486 403.462 939.655 408.97C936.838 414.449 932.165 418.722 925.11 422.044C910.866 428.749 887.276 431.42 850.964 432.295L850.747 432.3L850.54 432.367C839.28 435.998 830.53 437.5 821.453 435.995C812.352 434.486 802.744 429.924 789.85 421.059L789.69 420.949L789.508 420.883C783.075 418.568 778.134 415.429 774.19 410.35C770.537 405.645 767.664 399.179 765.342 389.935C793.64 397.869 815.192 401.081 833.936 395.969C853.296 390.689 869.359 376.623 886.747 350.628L886.956 350.315L886.993 349.941C889.592 323.429 885.413 306.919 874.409 276.78L874.164 276.11L873.49 275.877C858.121 270.566 846.519 265.643 835.788 258.167C825.061 250.694 815.126 240.613 803.195 224.888L800.59 226.305L812.352 258.768C803.907 258.558 796.617 257.03 790.275 252.631C783.396 247.859 777.418 239.558 772.415 225.298L771.577 224.888L769.881 224.796C756.019 240.331 748.769 248.828 738.303 262.89C735.868 266.066 741.461 271.671 740.703 275Z" stroke="black" stroke-width="3"/>
<path d="M883.591 310.308L884.725 313.415L886.315 310.515C894.309 295.939 910.081 295.046 919.394 303.317C927.831 314.44 926.444 328.901 919.334 339.059C912.237 349.196 899.605 354.828 885.624 348.43L884.32 347.833L883.665 349.109C879.865 356.516 876.586 361.943 872.655 366.793C868.742 371.621 864.142 375.928 857.651 381.053C841.905 390.326 829.218 395.41 815.398 396.108C801.56 396.807 786.4 393.117 765.701 384.461C755.347 377.783 749.016 371.565 745.152 363.731C741.264 355.849 739.786 346.157 739.501 332.343C741.577 308.412 742.194 296.26 739.466 284.726C736.701 270.654 736.907 260.591 741.212 251.76C745.528 242.905 754.086 235.031 768.665 225.65C780.576 221.447 787.852 221.068 793.335 222.962C798.884 224.879 802.24 220.88 807.5 227C807.863 227.422 810.646 233 814.5 237.5C819.495 243.332 821.754 246.723 831 254C840.835 261.739 854.971 269.007 874.5 276L883.591 310.308Z" fill="#FDC184" stroke="black" stroke-width="3"/>
<g filter="url(#filter0_d_88_2)">
<path d="M886.853 616.997C889.829 617.121 892.036 619.802 891.587 622.746L879.476 702.169C879.185 704.078 877.813 705.641 875.983 706.256C869.953 708.282 868.324 709.364 864.88 706.846C863.638 705.937 863.061 704.397 863.165 702.862L868.702 621.113C868.885 618.408 871.19 616.342 873.899 616.455L886.853 616.997Z" fill="#C87F4A"/>
<path d="M890.105 622.52L877.994 701.943C877.791 703.269 876.83 704.389 875.506 704.834C874.726 705.096 874.059 705.328 873.455 705.539C872.83 705.756 872.271 705.951 871.72 706.132C870.683 706.473 869.917 706.682 869.267 706.768C868.647 706.849 868.15 706.815 867.654 706.665C867.139 706.509 866.545 706.205 865.765 705.635C865.014 705.085 864.585 704.086 864.661 702.963L870.198 621.214C870.327 619.321 871.94 617.875 873.836 617.954L886.791 618.495C888.873 618.582 890.419 620.459 890.105 622.52Z" stroke="black" stroke-width="3"/>
</g>
<path d="M783 361.794C802.652 369.219 810.619 365.697 822 352.294" stroke="black" stroke-width="3" stroke-linecap="round"/>
<g filter="url(#filter1_d_88_2)">
<path d="M948.468 608.881C951.22 608.286 953.92 610.078 954.44 612.844L971.659 704.477C971.879 705.65 971.701 706.886 970.973 707.832C967.288 712.619 960.987 714.166 956.098 710.284C955.342 709.684 954.897 708.792 954.703 707.847L935.994 616.64C935.443 613.955 937.156 611.328 939.835 610.748L948.468 608.881Z" fill="#C87F4A"/>
<path d="M952.965 613.121L970.184 704.754C970.347 705.619 970.19 706.391 969.785 706.917C966.493 711.191 961.124 712.36 957.03 709.109C956.623 708.785 956.316 708.247 956.172 707.545L937.463 616.339C937.078 614.459 938.277 612.62 940.152 612.214L948.786 610.347C950.711 609.93 952.602 611.185 952.965 613.121Z" stroke="black" stroke-width="3"/>
</g>
<path d="M793.312 549.255L973.396 549.256C973.23 552.076 973.18 555.007 973.141 557.978C973.136 558.326 973.132 558.674 973.127 559.022C973.086 562.242 973.044 565.507 972.877 568.787C972.505 576.06 971.519 583.274 968.626 589.875C962.926 602.882 949.558 614.068 916.915 617.794H831.11C821.283 616.338 813.296 613.767 806.377 609.186C799.54 604.659 793.643 598.099 788.055 588.487L793.312 549.255Z" fill="#EF833A" stroke="black" stroke-width="3"/>
<path d="M830.906 410.86L825.311 395.474C835.083 392.792 842.532 390.112 849.452 386.526C856.048 383.107 862.13 378.883 869.266 373.098C869.036 376.881 869.614 379.802 871.002 382.365C872.581 385.281 875.155 387.627 878.446 390.236C876.804 404.197 867.133 412.86 856.689 416.282C851.395 418.016 845.947 418.385 841.311 417.432C836.707 416.486 832.983 414.259 830.906 410.86Z" fill="#E7A76A" stroke="black" stroke-width="2"/>
<path d="M944.603 611.294H922.5V436.312C931.787 436.425 939.963 436.608 947.058 437.237C954.543 437.9 960.722 439.051 965.664 441.082C970.571 443.099 974.234 445.972 976.755 450.103C979.282 454.244 980.739 459.777 980.998 467.252L971.51 571.613C969.993 581.534 968.045 588.668 964.117 594.712C960.235 600.684 954.322 605.738 944.603 611.294Z" fill="#EF833A" stroke="black" stroke-width="3"/>
<g filter="url(#filter2_d_88_2)">
<path d="M937 548.794H681C678.239 548.794 676 551.033 676 553.794V564.794C676 567.555 678.239 569.794 681 569.794H937C939.761 569.794 942 567.555 942 564.794V553.794C942 551.033 939.761 548.794 937 548.794Z" fill="#C87F4A"/>
<path d="M937 550.294H681C679.067 550.294 677.5 551.861 677.5 553.794V564.794C677.5 566.727 679.067 568.294 681 568.294H937C938.933 568.294 940.5 566.727 940.5 564.794V553.794C940.5 551.861 938.933 550.294 937 550.294Z" stroke="black" stroke-width="3"/>
</g>
<g filter="url(#filter3_d_88_2)">
<path d="M711.859 566.794C714.859 566.794 717.183 569.417 716.823 572.394L699.294 717.44C699.101 719.033 698.158 720.452 696.729 721.182C688.771 725.243 684.507 725.183 680.076 719.344C679.379 718.425 679.107 717.26 679.221 716.113L693.554 571.302C693.807 568.744 695.959 566.794 698.53 566.794H711.859Z" fill="#38403C"/>
<path d="M715.334 572.214L697.805 717.26C697.668 718.386 697.006 719.356 696.047 719.846C692.104 721.858 689.378 722.678 687.215 722.482C685.181 722.297 683.348 721.175 681.271 718.437C680.833 717.86 680.632 717.085 680.714 716.261L695.047 571.45C695.224 569.659 696.73 568.294 698.53 568.294H711.859C713.959 568.294 715.586 570.13 715.334 572.214Z" stroke="black" stroke-width="3"/>
</g>
<g filter="url(#filter4_d_88_2)">
<path d="M711.859 566.794C714.859 566.794 717.183 569.417 716.823 572.394L699.294 717.44C699.101 719.033 698.158 720.452 696.729 721.182C688.771 725.243 684.507 725.183 680.076 719.344C679.379 718.425 679.107 717.26 679.221 716.113L693.554 571.302C693.807 568.744 695.959 566.794 698.53 566.794H711.859Z" fill="#C87F4A"/>
<path d="M715.334 572.214L697.805 717.26C697.668 718.386 697.006 719.356 696.047 719.846C692.104 721.858 689.378 722.678 687.215 722.482C685.181 722.297 683.348 721.175 681.271 718.437C680.833 717.86 680.632 717.085 680.714 716.261L695.047 571.45C695.224 569.659 696.73 568.294 698.53 568.294H711.859C713.959 568.294 715.586 570.13 715.334 572.214Z" stroke="black" stroke-width="3"/>
</g>
<path d="M810.478 473.991L807.494 441.656L804.506 441.932L806.263 460.961L794.146 423.51C798.865 416.242 802.943 411.546 807.528 408.136C811.915 404.873 816.853 402.722 823.455 400.678C823.934 402.526 824.276 404.111 824.581 405.527L824.601 405.621C824.972 407.342 825.303 408.879 825.773 410.281C826.779 413.282 828.398 415.586 832.073 418.474L832.355 418.695L832.706 418.765C847.903 421.805 858.009 420.317 865.546 414.751C872.706 409.462 877.266 400.668 881.87 389.616C895.152 393.58 903.445 397.153 919.211 406.57C940.576 420.259 947.913 442.339 957.633 491.575C933.833 488.941 920.8 489.068 904.191 495.236C901.203 476.392 899.992 464.843 898.496 444.186L895.504 444.403C897.052 465.786 898.302 477.492 901.519 497.532L902.726 497.338L903 498.794H909.885L925.876 551.942C879.025 544.603 852.354 542.311 807.703 542.775C811.013 516.477 812.925 501.089 810.494 474.159V474.156L810.479 473.992L810.478 473.991Z" fill="#CC2C2C" stroke="black" stroke-width="3"/>
<path d="M910.804 503.818L909.675 495.91C917.395 493.929 923.077 492.839 928.979 492.55C935.02 492.254 941.357 492.794 950.409 494.147C953.205 501.646 956.346 513.782 955.372 524.796C954.868 530.488 953.275 535.778 950.069 539.982C946.905 544.132 942.076 547.346 934.844 548.796C892.263 549.266 876.346 537.883 868.639 529.937C867.227 528.482 866.099 527.153 865.091 525.964C864.684 525.484 864.296 525.028 863.917 524.594C863.275 523.861 862.645 523.184 862.011 522.639C861.378 522.094 860.669 521.618 859.854 521.368C858.054 520.816 856.39 521.529 854.752 522.922C853.172 524.265 851.324 526.478 848.972 529.661C847.406 530.545 845.492 530.72 843.741 530.44C842.831 530.295 842.013 530.033 841.372 529.726C840.702 529.404 840.342 529.089 840.211 528.909L839.991 528.608C840.946 523.648 842.217 519.882 844.144 516.378C846.263 512.524 849.219 508.908 853.586 504.329L851.414 502.259C846.988 506.901 843.822 510.739 841.515 514.932C839.352 518.865 837.983 523.042 836.979 528.388C834.582 529.258 832.652 529.506 831.042 529.198C829.58 528.919 828.233 528.153 826.946 526.683C825.745 513.723 833.138 505.784 840.021 499.394L837.979 497.195C831.535 503.179 823.852 511.189 823.817 523.839C819.854 519.87 818.887 515.927 819.303 512.277C819.816 507.776 822.457 503.44 825.178 499.724C831.962 491.744 838.811 488.193 847.257 488.824C855.903 489.469 866.492 494.504 880.633 504.518L880.992 504.773L881.431 504.793C892.338 505.292 898.445 505.757 909.359 506.788L911.254 506.967L911.235 506.831C918.375 507.032 922.192 507.861 927.938 510.185L929.062 507.404C922.799 504.87 918.578 504.003 910.804 503.818Z" fill="#FBBB7F" stroke="black" stroke-width="3"/>
<g filter="url(#filter5_d_88_2)">
<path d="M888 531.794H825C822.239 531.794 820 534.033 820 536.794V544.794C820 547.555 822.239 549.794 825 549.794H888C890.761 549.794 893 547.555 893 544.794V536.794C893 534.033 890.761 531.794 888 531.794Z" fill="#38403C"/>
<path d="M888 533.294H825C823.067 533.294 821.5 534.861 821.5 536.794V544.794C821.5 546.727 823.067 548.294 825 548.294H888C889.933 548.294 891.5 546.727 891.5 544.794V536.794C891.5 534.861 889.933 533.294 888 533.294Z" stroke="black" stroke-width="3"/>
</g>
<path d="M675.492 427.794H790.871L820.508 530.794H698.155L672.108 432.188C671.522 429.968 673.196 427.794 675.492 427.794Z" fill="#38403C" stroke="black" stroke-width="3"/>
<g filter="url(#filter6_d_88_2)">
<path d="M817 531.794H702C699.239 531.794 697 534.033 697 536.794V544.794C697 547.555 699.239 549.794 702 549.794H817C819.761 549.794 822 547.555 822 544.794V536.794C822 534.033 819.761 531.794 817 531.794Z" fill="#38403C"/>
<path d="M817 533.294H702C700.067 533.294 698.5 534.861 698.5 536.794V544.794C698.5 546.727 700.067 548.294 702 548.294H817C818.933 548.294 820.5 546.727 820.5 544.794V536.794C820.5 534.861 818.933 533.294 817 533.294Z" stroke="black" stroke-width="3"/>
</g>
<path d="M771.737 573.327C787.094 574.927 794.385 576.066 802.525 578.298C792.876 604.497 790.872 626.236 791.484 672.134C784.771 673.817 779.42 674.564 773.982 674.358C768.472 674.149 762.791 672.96 755.431 670.672C752.953 632.249 753.02 615.64 755.479 594.558C757.04 588.101 758.73 583.88 761.19 580.732C763.584 577.668 766.813 575.488 771.737 573.327Z" fill="#FCBD80" stroke="black" stroke-width="3"/>
<path d="M719.393 700.431C725.932 691.593 737.452 683.904 755.713 673.888C762.717 675.56 768.059 676.47 773.6 676.305C778.984 676.145 784.466 674.975 791.777 672.633C796.744 683.481 799.102 690.168 800.081 703.843C800.066 704.91 799.53 706.059 798.247 707.285C796.938 708.536 794.957 709.758 792.358 710.897C787.168 713.171 779.84 714.974 771.463 716.121C754.945 718.381 734.738 718.04 719.558 714.026C718.041 710.58 718.092 706.186 719.393 700.431Z" fill="#2B515F" stroke="black" stroke-width="3"/>
<path d="M796.767 575.809C790.801 574.029 784.38 572.665 776.794 571.294H928.876C929.918 574.956 930.345 577.72 929.617 580.637C928.816 583.842 926.557 587.463 921.527 592.643C912.692 598.723 907.535 599.81 899.854 601.428C898.549 601.703 897.171 601.994 895.69 602.327C885.733 604.297 879.418 606.034 875.028 608.036C870.706 610.006 868.263 612.228 866.049 615.071C861.109 617.19 857.488 618.215 854.137 618.237C850.953 618.257 847.867 617.371 843.988 615.381C843.49 596.763 827.774 577.874 796.767 575.809Z" fill="#2C4D59" stroke="black" stroke-width="3"/>
<path d="M718.555 712.996L718.926 704.091C731.542 706.439 745.497 708.161 758.964 707.919C772.096 707.684 784.869 705.58 795.5 700.281V704.963C785.514 711.153 776.089 714.491 764.314 715.632C752.473 716.78 738.217 715.711 718.555 712.996Z" fill="#FEF5DC" stroke="black" stroke-width="3"/>
<path d="M836.845 607.945L835.76 608.472L836.041 609.644C842.931 638.349 846.165 652.49 851.242 675.3C845.346 677.247 840.503 678.536 835.267 679.213C829.86 679.912 823.975 679.966 816.028 679.369C805.979 655.454 800.659 641.401 791.965 615.942C790.36 604.725 790.347 597.535 791.819 592.212C793.232 587.1 796.058 583.563 800.586 579.759C817.886 578.62 828.994 579.515 836.819 582.867C844.22 586.037 848.863 591.488 853.012 600.092L836.845 607.945Z" fill="#FCBD80" stroke="black" stroke-width="3"/>
<path d="M783.393 706.43C789.886 697.567 796.19 692.275 814.332 682.323C828.927 683.386 837.661 682.478 852.695 677.634C857.663 688.482 860.02 695.169 861 708.843C860.985 709.939 860.47 711.077 859.277 712.263C858.054 713.478 856.199 714.655 853.75 715.744C848.859 717.919 841.925 719.597 833.935 720.619C818.186 722.633 798.726 722.051 783.55 718.024C782.802 716.41 782.461 714.984 782.422 713.36C782.379 711.546 782.709 709.423 783.393 706.43Z" fill="#2B515F" stroke="black" stroke-width="3"/>
<path d="M782.555 717.496L782.926 708.591C795.542 710.939 809.497 712.661 822.964 712.419C836.096 712.184 848.869 710.08 859.5 704.781V709.463C849.514 715.653 840.089 718.991 828.314 720.132C816.473 721.28 802.217 720.211 782.555 717.496Z" fill="#FEF5DC" stroke="black" stroke-width="3"/>
<g filter="url(#filter7_d_88_2)">
<path d="M929.567 568.23C932.097 568.23 934.228 570.119 934.531 572.631L951.341 711.977C951.445 712.84 951.338 713.728 950.932 714.497C946.74 722.426 937.321 722.342 932.145 715.691C931.699 715.117 931.443 714.422 931.333 713.704L909.884 573.988C909.419 570.96 911.762 568.23 914.826 568.23H929.567Z" fill="#C87F4A"/>
<path d="M933.042 572.811L949.852 712.157C949.928 712.788 949.839 713.354 949.605 713.796C947.747 717.311 944.814 718.946 941.849 719.063C938.849 719.181 935.647 717.749 933.329 714.769C933.073 714.441 932.896 714.002 932.815 713.477L911.367 573.761C911.041 571.641 912.681 569.73 914.826 569.73H929.567C931.338 569.73 932.83 571.052 933.042 572.811Z" stroke="black" stroke-width="3"/>
</g>
<path d="M746 446.794H723C721.343 446.794 720 448.137 720 449.794C720 451.451 721.343 452.794 723 452.794H746C747.657 452.794 749 451.451 749 449.794C749 448.137 747.657 446.794 746 446.794Z" fill="#699185"/>
<path d="M756 460.794H728C726.343 460.794 725 462.137 725 463.794C725 465.451 726.343 466.794 728 466.794H756C757.657 466.794 759 465.451 759 463.794C759 462.137 757.657 460.794 756 460.794Z" fill="#699185"/>
<path d="M740 475.794H716C714.343 475.794 713 477.137 713 478.794C713 480.451 714.343 481.794 716 481.794H740C741.657 481.794 743 480.451 743 478.794C743 477.137 741.657 475.794 740 475.794Z" fill="#699185"/>
<path d="M764 487.794H738C736.343 487.794 735 489.137 735 490.794C735 492.451 736.343 493.794 738 493.794H764C765.657 493.794 767 492.451 767 490.794C767 489.137 765.657 487.794 764 487.794Z" fill="#699185"/>
<path d="M755 502.794H737C735.343 502.794 734 504.137 734 505.794C734 507.451 735.343 508.794 737 508.794H755C756.657 508.794 758 507.451 758 505.794C758 504.137 756.657 502.794 755 502.794Z" fill="#699185"/>
<path d="M761 474.794H753C751.343 474.794 750 476.137 750 477.794C750 479.451 751.343 480.794 753 480.794H761C762.657 480.794 764 479.451 764 477.794C764 476.137 762.657 474.794 761 474.794Z" fill="#699185"/>
<path d="M775 474.794H773C771.343 474.794 770 476.137 770 477.794C770 479.451 771.343 480.794 773 480.794H775C776.657 480.794 778 479.451 778 477.794C778 476.137 776.657 474.794 775 474.794Z" fill="#699185"/>
<path d="M722 488.794H720C718.343 488.794 717 490.137 717 491.794C717 493.451 718.343 494.794 720 494.794H722C723.657 494.794 725 493.451 725 491.794C725 490.137 723.657 488.794 722 488.794Z" fill="#699185"/>
<path d="M729 505.794C729 504.137 727.657 502.794 726 502.794C724.343 502.794 723 504.137 723 505.794C723 507.451 724.343 508.794 726 508.794C727.657 508.794 729 507.451 729 505.794Z" fill="#699185"/>
<path d="M714 461.794H712C710.343 461.794 709 463.137 709 464.794C709 466.451 710.343 467.794 712 467.794H714C715.657 467.794 717 466.451 717 464.794C717 463.137 715.657 461.794 714 461.794Z" fill="#699185"/>
<path d="M815.932 680.425L809.724 664.668C809.789 664.665 809.853 664.663 809.918 664.661C825.045 664.125 833.902 663.811 847.651 660.299L851.942 675.555C850.602 676.901 848.053 678.16 844.806 679.22C841.427 680.323 837.38 681.183 833.372 681.711C829.363 682.239 825.414 682.433 822.23 682.212C820.637 682.102 819.252 681.889 818.152 681.569C817.088 681.26 816.349 680.868 815.932 680.425ZM753.508 673.443L753.985 658.777C755.351 658.729 756.668 658.68 757.942 658.633C771.031 658.151 779.675 657.832 792.471 658.991L791.522 674.324C787.042 675.766 779.768 677.099 772.487 677.294C768.761 677.393 765.048 677.194 761.718 676.565C758.491 675.955 755.652 674.948 753.508 673.443Z" fill="#FCEFD2" stroke="black"/>
<path d="M806.635 688.895C811.454 689.816 814.769 690.751 818.396 692.153C820.476 692.958 820.823 695.755 818.999 697.133C817.901 697.962 816.365 697.925 815.22 697.092C812.196 694.89 809.508 693.65 806.009 692.752C804.422 692.344 803.91 690.348 805.071 689.326C805.499 688.948 806.078 688.788 806.635 688.895Z" fill="#D9D9D9" stroke="black"/>
<path d="M813.466 683.846C818.292 684.678 821.612 685.518 825.205 686.769C827.235 687.476 827.565 690.208 825.745 691.457C824.775 692.123 823.479 692.094 822.478 691.418C819.33 689.294 816.582 688.124 812.963 687.282C811.494 686.941 811.054 685.072 812.162 684.185C812.529 683.891 813.005 683.767 813.466 683.846Z" fill="#D9D9D9" stroke="black"/>
<path d="M744.635 683.895C749.454 684.816 752.769 685.751 756.396 687.153C758.476 687.958 758.823 690.755 756.999 692.133C755.901 692.962 754.365 692.925 753.22 692.092C750.196 689.89 747.508 688.65 744.009 687.752C742.422 687.344 741.91 685.348 743.071 684.326C743.499 683.948 744.078 683.788 744.635 683.895Z" fill="#D9D9D9" stroke="black"/>
<path d="M751.466 678.846C756.292 679.678 759.612 680.518 763.205 681.769C765.235 682.476 765.565 685.208 763.745 686.457C762.775 687.123 761.479 687.094 760.478 686.418C757.33 684.294 754.582 683.124 750.963 682.282C749.494 681.941 749.054 680.072 750.162 679.185C750.529 678.891 751.005 678.767 751.466 678.846Z" fill="#D9D9D9" stroke="black"/>
<path d="M787.069 321.281C787.569 323.281 786.799 326.757 784.069 327.781C780.069 329.281 775.569 331.281 775.569 335.281C775.569 339.781 779.069 345.281 786.569 346.281" stroke="black" stroke-width="3" stroke-linecap="round"/>
<path d="M848.958 310.324C848.958 321.094 841.57 329.824 832.458 329.824C823.345 329.824 815.958 321.094 815.958 310.324C815.958 299.555 823.345 290.824 832.458 290.824C841.57 290.824 848.958 299.555 848.958 310.324Z" fill="white"/>
<path d="M837.569 315.281C837.569 322.018 833.217 327.281 828.069 327.281C822.921 327.281 818.569 322.018 818.569 315.281C818.569 308.543 822.921 303.281 828.069 303.281C833.217 303.281 837.569 308.543 837.569 315.281Z" fill="#272B1B" stroke="black"/>
<path d="M782.069 310.281C782.069 321.05 774.682 329.781 765.569 329.781C756.456 329.781 749.069 321.05 749.069 310.281C749.069 299.511 756.456 290.781 765.569 290.781C774.682 290.781 782.069 299.511 782.069 310.281Z" fill="white"/>
<path d="M770.68 315.237C770.68 321.974 766.329 327.237 761.18 327.237C756.032 327.237 751.68 321.974 751.68 315.237C751.68 308.5 756.032 303.237 761.18 303.237C766.329 303.237 770.68 308.5 770.68 315.237Z" fill="#272B1B" stroke="black"/>
<path d="M817.793 272.564C817.799 272.015 818.001 271.288 818.44 270.195C824.762 268.414 829.589 267.953 834.278 269.35C839.009 270.759 843.673 274.08 849.612 280.031C849.773 280.761 849.888 281.369 849.943 281.867C850.004 282.406 849.988 282.766 849.921 282.995C849.863 283.191 849.778 283.268 849.652 283.313C849.494 283.369 849.222 283.388 848.771 283.31C843.3 279.337 839.02 276.82 834.407 275.366C829.817 273.92 824.934 273.538 818.272 273.773C817.926 273.392 817.788 273.033 817.793 272.564Z" fill="#282920" stroke="black"/>
<path d="M773.569 268.951C773.564 268.085 773.401 267.057 773.084 265.957C768.267 264.623 764.824 263.992 761.755 264.434C758.657 264.88 755.874 266.431 752.416 269.641C750.989 271.07 750.041 272.976 749.748 274.559C749.601 275.355 749.627 276.022 749.797 276.494C749.925 276.848 750.127 277.087 750.418 277.213C754.595 272.834 757.878 270.686 761.389 269.917C764.854 269.159 768.474 269.765 773.246 270.723C773.453 270.316 773.573 269.721 773.569 268.951Z" fill="#282920" stroke="black"/>
<path d="M536.869 465C536.869 465 525.369 532 499.369 578.5C473.369 625 433.369 629 389.869 637.5C368.926 641.592 267.526 649.27 234.369 631.5C198.658 612.36 236.369 559.5 236.369 559.5" stroke="#D7501D" stroke-width="5"/>
<path d="M565 467.5C565 467.5 569.523 568.507 530 610C501.02 640.425 474.015 661.986 432.5 655.5C385.221 648.114 351 564 351 564L293 437" stroke="#000804" stroke-width="5"/>
<path d="M417.134 416.797C420.423 421.345 423.291 424.248 428.313 426.834C432.883 429.187 439.952 431.641 445.355 432.166C452.529 432.863 460.183 431.943 467.933 429.606C476.054 427.157 484.305 423.144 492.263 417.767C490.603 423.439 489.563 428.488 489.11 433.882C488.567 440.352 488.873 447.26 489.906 456.271C484.104 460.178 477.736 462.955 471.113 464.723C460.857 467.46 450.002 467.773 439.738 466.121C429.129 464.414 418.303 460.112 410.337 454.755C402.616 449.562 397.579 443.383 394.88 435.874C400.884 433.469 405.182 430.986 408.701 427.794C411.983 424.817 414.517 421.285 417.134 416.797Z" fill="#DA7E12" stroke="black" stroke-width="3"/>
</g>
<path d="M712 152.411L623.5 83.4108L639 59.4108L729 126.411L712 152.411Z" fill="#5C6867" stroke="#292F2C" stroke-width="3"/>
<circle cx="742" cy="150.411" r="30" fill="#A49C92" stroke="#292F2C" stroke-width="3"/>
<circle cx="742" cy="151.411" r="16" fill="white" stroke="#292F2C" stroke-width="3"/>
<path d="M588.5 67.4108L563 54.9108C563 54.9108 563.944 67.1656 567.5 73.9108C571.237 80.999 574.559 84.9067 581.5 88.9108C589.897 93.7553 596.449 94.5699 606 92.9108C613.404 91.6248 623.5 84.9108 623.5 84.9108L639.5 59.4108C639.5 59.4108 642.598 46.1744 641 37.9108C639.392 29.5939 637.113 24.7552 631.5 18.4108C624.664 10.6832 618.721 6.82054 608.5 5.4108C600.676 4.33166 595.799 5.39465 588.5 8.4108C583.144 10.6241 576 16.4108 576 16.4108L608.5 34.4108C608.5 34.4108 609.858 39.5877 609.5 42.9108C608.939 48.1201 609.014 50.8138 606.5 55.4108C603.769 60.4055 601.375 65.5357 596 67.4108C593.235 68.3755 588.5 67.4108 588.5 67.4108Z" fill="#A39991" stroke="#292F2C" stroke-width="3"/>
<path d="M666.605 67.6846C669.441 66.7603 671.29 66.8124 672.857 67.6064C674.503 68.4399 676.022 70.1711 677.969 73.0859C677.257 80.249 676.175 85.4 674.044 89.7656C671.914 94.1277 668.696 97.7847 663.579 101.884C662.036 102.13 660.721 102.328 659.562 102.375C658.345 102.424 657.393 102.301 656.614 101.952C655.157 101.298 653.91 99.6501 653.031 95.375C656.761 82.945 659.673 76.7462 666.605 67.6846Z" fill="#FEC387" stroke="black" stroke-width="2"/>
<path d="M684.605 75.6846C687.441 74.7603 689.29 74.8124 690.857 75.6064C692.503 76.4399 694.022 78.1711 695.969 81.0859C695.257 88.249 694.175 93.4 692.044 97.7656C689.914 102.128 686.696 105.785 681.579 109.884C680.036 110.13 678.721 110.328 677.562 110.375C676.345 110.424 675.393 110.301 674.614 109.952C673.157 109.298 671.91 107.65 671.031 103.375C674.761 90.945 677.673 84.7462 684.605 75.6846Z" fill="#FEC387" stroke="black" stroke-width="2"/>
<path d="M700.105 89.3542C702.941 88.4299 704.79 88.4821 706.357 89.2761C708.003 90.1096 709.522 91.8408 711.469 94.7556C710.757 101.919 709.675 107.07 707.544 111.435C705.414 115.797 702.196 119.454 697.079 123.553C695.536 123.799 694.221 123.998 693.062 124.045C691.845 124.094 690.893 123.971 690.114 123.622C688.657 122.968 687.41 121.32 686.531 117.045C690.261 104.615 693.173 98.4159 700.105 89.3542Z" fill="#FEC387" stroke="black" stroke-width="2"/>
<path d="M682.41 103.872C684.41 109.372 676.91 116.704 671.41 114.872C664.285 112.498 660.65 111.39 654.91 109.872C665.371 115.175 668.03 121.033 667.41 136.872C669.707 131.628 668.954 128.115 668.91 122C675.41 126.5 686.5 134.5 694 140.5C690.107 150.345 682.5 152.5 671 154L637.91 133.372C625.919 113.078 637.752 93.7295 653.41 89.7458C663.214 87.2516 674.517 90.7805 682.41 103.872Z" fill="#FEC387"/>
<path d="M667.41 136.872C668.03 121.033 665.371 115.175 654.91 109.872C660.65 111.39 664.285 112.498 671.41 114.872C676.91 116.704 684.41 109.372 682.41 103.872C674.517 90.7805 663.214 87.2516 653.41 89.7458C637.752 93.7295 625.919 113.078 637.91 133.372L671 154C682.5 152.5 690.107 150.345 694 140.5C686.5 134.5 675.41 126.5 668.91 122C668.954 128.115 669.707 131.628 667.41 136.872ZM667.41 136.872L668.91 122.372" stroke="black" stroke-width="2" stroke-linecap="round"/>
<path d="M639 127L672.5 147L667 166L639 165.5V127Z" fill="#FEC387"/>
<defs>
<filter id="filter0_d_88_2" x="859.152" y="616.451" width="36.4934" height="99.8602" filterUnits="userSpaceOnUse" color-interpolation-filters="sRGB">
<feFlood flood-opacity="0" result="BackgroundImageFix"/>
<feColorMatrix in="SourceAlpha" type="matrix" values="0 0 0 0 0 0 0 0 0 0 0 0 0 0 0 0 0 0 127 0" result="hardAlpha"/>
<feOffset dy="4"/>
<feGaussianBlur stdDeviation="2"/>
<feComposite in2="hardAlpha" operator="out"/>
<feColorMatrix type="matrix" values="0 0 0 0 0 0 0 0 0 0 0 0 0 0 0 0 0 0 0.25 0"/>
<feBlend mode="normal" in2="BackgroundImageFix" result="effect1_dropShadow_88_2"/>
<feBlend mode="normal" in="SourceGraphic" in2="effect1_dropShadow_88_2" result="shape"/>
</filter>
<filter id="filter1_d_88_2" x="931.891" y="608.767" width="43.8563" height="111.712" filterUnits="userSpaceOnUse" color-interpolation-filters="sRGB">
<feFlood flood-opacity="0" result="BackgroundImageFix"/>
<feColorMatrix in="SourceAlpha" type="matrix" values="0 0 0 0 0 0 0 0 0 0 0 0 0 0 0 0 0 0 127 0" result="hardAlpha"/>
<feOffset dy="4"/>
<feGaussianBlur stdDeviation="2"/>
<feComposite in2="hardAlpha" operator="out"/>
<feColorMatrix type="matrix" values="0 0 0 0 0 0 0 0 0 0 0 0 0 0 0 0 0 0 0.25 0"/>
<feBlend mode="normal" in2="BackgroundImageFix" result="effect1_dropShadow_88_2"/>
<feBlend mode="normal" in="SourceGraphic" in2="effect1_dropShadow_88_2" result="shape"/>
</filter>
<filter id="filter2_d_88_2" x="672" y="548.794" width="274" height="29" filterUnits="userSpaceOnUse" color-interpolation-filters="sRGB">
<feFlood flood-opacity="0" result="BackgroundImageFix"/>
<feColorMatrix in="SourceAlpha" type="matrix" values="0 0 0 0 0 0 0 0 0 0 0 0 0 0 0 0 0 0 127 0" result="hardAlpha"/>
<feOffset dy="4"/>
<feGaussianBlur stdDeviation="2"/>
<feComposite in2="hardAlpha" operator="out"/>
<feColorMatrix type="matrix" values="0 0 0 0 0 0 0 0 0 0 0 0 0 0 0 0 0 0 0.25 0"/>
<feBlend mode="normal" in2="BackgroundImageFix" result="effect1_dropShadow_88_2"/>
<feBlend mode="normal" in="SourceGraphic" in2="effect1_dropShadow_88_2" result="shape"/>
</filter>
<filter id="filter3_d_88_2" x="675.196" y="566.794" width="45.6642" height="165.216" filterUnits="userSpaceOnUse" color-interpolation-filters="sRGB">
<feFlood flood-opacity="0" result="BackgroundImageFix"/>
<feColorMatrix in="SourceAlpha" type="matrix" values="0 0 0 0 0 0 0 0 0 0 0 0 0 0 0 0 0 0 127 0" result="hardAlpha"/>
<feOffset dy="4"/>
<feGaussianBlur stdDeviation="2"/>
<feComposite in2="hardAlpha" operator="out"/>
<feColorMatrix type="matrix" values="0 0 0 0 0 0 0 0 0 0 0 0 0 0 0 0 0 0 0.25 0"/>
<feBlend mode="normal" in2="BackgroundImageFix" result="effect1_dropShadow_88_2"/>
<feBlend mode="normal" in="SourceGraphic" in2="effect1_dropShadow_88_2" result="shape"/>
</filter>
<filter id="filter4_d_88_2" x="675.196" y="566.794" width="45.6642" height="165.216" filterUnits="userSpaceOnUse" color-interpolation-filters="sRGB">
<feFlood flood-opacity="0" result="BackgroundImageFix"/>
<feColorMatrix in="SourceAlpha" type="matrix" values="0 0 0 0 0 0 0 0 0 0 0 0 0 0 0 0 0 0 127 0" result="hardAlpha"/>
<feOffset dy="4"/>
<feGaussianBlur stdDeviation="2"/>
<feComposite in2="hardAlpha" operator="out"/>
<feColorMatrix type="matrix" values="0 0 0 0 0 0 0 0 0 0 0 0 0 0 0 0 0 0 0.25 0"/>
<feBlend mode="normal" in2="BackgroundImageFix" result="effect1_dropShadow_88_2"/>
<feBlend mode="normal" in="SourceGraphic" in2="effect1_dropShadow_88_2" result="shape"/>
</filter>
<filter id="filter5_d_88_2" x="816" y="531.794" width="81" height="26" filterUnits="userSpaceOnUse" color-interpolation-filters="sRGB">
<feFlood flood-opacity="0" result="BackgroundImageFix"/>
<feColorMatrix in="SourceAlpha" type="matrix" values="0 0 0 0 0 0 0 0 0 0 0 0 0 0 0 0 0 0 127 0" result="hardAlpha"/>
<feOffset dy="4"/>
<feGaussianBlur stdDeviation="2"/>
<feComposite in2="hardAlpha" operator="out"/>
<feColorMatrix type="matrix" values="0 0 0 0 0 0 0 0 0 0 0 0 0 0 0 0 0 0 0.25 0"/>
<feBlend mode="normal" in2="BackgroundImageFix" result="effect1_dropShadow_88_2"/>
<feBlend mode="normal" in="SourceGraphic" in2="effect1_dropShadow_88_2" result="shape"/>
</filter>
<filter id="filter6_d_88_2" x="693" y="531.794" width="133" height="26" filterUnits="userSpaceOnUse" color-interpolation-filters="sRGB">
<feFlood flood-opacity="0" result="BackgroundImageFix"/>
<feColorMatrix in="SourceAlpha" type="matrix" values="0 0 0 0 0 0 0 0 0 0 0 0 0 0 0 0 0 0 127 0" result="hardAlpha"/>
<feOffset dy="4"/>
<feGaussianBlur stdDeviation="2"/>
<feComposite in2="hardAlpha" operator="out"/>
<feColorMatrix type="matrix" values="0 0 0 0 0 0 0 0 0 0 0 0 0 0 0 0 0 0 0.25 0"/>
<feBlend mode="normal" in2="BackgroundImageFix" result="effect1_dropShadow_88_2"/>
<feBlend mode="normal" in="SourceGraphic" in2="effect1_dropShadow_88_2" result="shape"/>
</filter>
<filter id="filter7_d_88_2" x="905.825" y="568.23" width="49.5535" height="160.34" filterUnits="userSpaceOnUse" color-interpolation-filters="sRGB">
<feFlood flood-opacity="0" result="BackgroundImageFix"/>
<feColorMatrix in="SourceAlpha" type="matrix" values="0 0 0 0 0 0 0 0 0 0 0 0 0 0 0 0 0 0 127 0" result="hardAlpha"/>
<feOffset dy="4"/>
<feGaussianBlur stdDeviation="2"/>
<feComposite in2="hardAlpha" operator="out"/>
<feColorMatrix type="matrix" values="0 0 0 0 0 0 0 0 0 0 0 0 0 0 0 0 0 0 0.25 0"/>
<feBlend mode="normal" in2="BackgroundImageFix" result="effect1_dropShadow_88_2"/>
<feBlend mode="normal" in="SourceGraphic" in2="effect1_dropShadow_88_2" result="shape"/>
</filter>
<clipPath id="clip0_88_2">
<rect width="997" height="763" fill="white"/>
</clipPath>
</defs>
</svg>
