<svg width="72" height="68" viewBox="0 0 72 68" fill="none" xmlns="http://www.w3.org/2000/svg">
    <path
        d="M30.8829 10.9944C32.4387 10.343 34.2035 10 36 10C37.7965 10 39.5613 10.343 41.1171 10.9944L66.8829 21.781C68.4386 22.4325 69.7306 23.3694 70.6288 24.4978C71.527 25.6261 72 26.9061 72 28.209V49.788C72 51.091 71.527 52.3709 70.6288 53.4992C69.7306 54.6276 68.4386 55.5646 66.8829 56.216L41.1171 67.0056C39.5613 67.657 37.7965 68 36 68C34.2035 68 32.4387 67.657 30.8829 67.0056L5.11712 56.216C3.56136 55.5646 2.26944 54.6276 1.3712 53.4992C0.472955 52.3709 4.63549e-05 51.091 7.181e-07 49.788V28.212C-0.00067241 26.9085 0.471895 25.628 1.37017 24.4991C2.26845 23.3702 3.56076 22.4327 5.11712 21.781L30.8829 10.9944Z"
        fill="#666666" />
    <path
        d="M31.269 1.91687L31.2691 1.91684C32.6948 1.31987 34.3274 1 36 1C37.6726 1 39.3052 1.31987 40.7309 1.91684L40.731 1.91687L66.4966 12.7034C66.4967 12.7034 66.4967 12.7034 66.4967 12.7034C67.9237 13.301 69.0695 14.1446 69.8464 15.1206C70.6198 16.092 71 17.1568 71 18.209V39.788C71 40.8403 70.6198 41.905 69.8464 42.8764C69.0694 43.8525 67.9237 44.6961 66.4966 45.2936L40.7309 56.0832C39.3052 56.6801 37.6726 57 36 57C34.3274 57 32.6948 56.6801 31.2691 56.0832L5.50338 45.2936C4.07632 44.6961 2.93056 43.8525 2.15356 42.8764C1.38023 41.905 1.00004 40.8403 1 39.788L1 18.212L1 18.2114C0.999457 17.1588 1.37935 16.0936 2.15268 15.1217C2.92967 14.1452 4.07573 13.3012 5.50329 12.7034C5.50331 12.7034 5.50334 12.7034 5.50337 12.7034L31.269 1.91687Z"
        fill="#AAAAAA" stroke="#888888" stroke-width="2" />
</svg>