<svg width="58" height="42" viewBox="0 0 58 42" fill="none" xmlns="http://www.w3.org/2000/svg">
    <path
        d="M25.2301 1.65603L25.2302 1.65601C26.3621 1.22994 27.6634 1 29 1C30.3366 1 31.6379 1.22994 32.7698 1.65601L32.7699 1.65603L53.5256 9.46696C54.6606 9.89419 55.553 10.4908 56.1468 11.1614C56.7354 11.8261 57 12.5245 57 13.1859V28.812C57 29.4734 56.7354 30.1718 56.1468 30.8365C55.553 31.507 54.6606 32.1037 53.5256 32.5309L53.8779 33.4668L53.5256 32.5309L32.7698 40.344C31.6379 40.7701 30.3366 41 29 41C27.6634 41 26.3621 40.7701 25.2302 40.344L4.47443 32.5309L4.1247 33.46L4.47441 32.5309C3.3394 32.1037 2.44704 31.507 1.85321 30.8365C1.26459 30.1718 1.00004 29.4734 1 28.812C1 28.812 1 28.812 1 28.812L1 13.188L1 13.1874C0.99962 12.5258 1.26393 11.8271 1.85254 11.1621C2.44634 10.4913 3.33892 9.89439 4.47434 9.46699C4.47436 9.46698 4.47439 9.46697 4.47441 9.46696L25.2301 1.65603Z"
        fill="#A855F7" stroke="#9333EA" stroke-width="2" />
</svg>
