<svg width="58" height="42" viewBox="0 0 58 42" fill="none" xmlns="http://www.w3.org/2000/svg">
    <path
        d="M24.8779 0.720114C26.1312 0.248359 27.5528 0 29 0C30.4472 0 31.8688 0.248359 33.1221 0.720114L53.8779 8.53107C55.1311 9.00281 56.1718 9.68132 56.8954 10.4984C57.619 11.3155 58 12.2423 58 13.1858V28.812C58 29.7555 57.619 30.6824 56.8954 31.4995C56.1718 32.3165 55.1311 32.995 53.8779 33.4668L33.1221 41.2799C31.8688 41.7516 30.4472 42 29 42C27.5528 42 26.1312 41.7516 24.8779 41.2799L4.12213 33.4668C2.86887 32.995 1.82816 32.3165 1.10457 31.4995C0.380991 30.6824 3.73414e-05 29.7555 5.78469e-07 28.812V13.188C-0.000541663 12.2441 0.380137 11.3168 1.10375 10.4993C1.82736 9.68184 2.86839 9.00299 4.12213 8.53107L24.8779 0.720114Z"
        fill="#666666" />
</svg>