<svg width="28" height="16" viewBox="0 0 28 16" fill="none" xmlns="http://www.w3.org/2000/svg">
    <path
        d="M13.9993 13.404L7.21295 15.85C6.91315 15.9641 6.59973 16.013 6.27267 15.9967C5.94562 15.9804 5.65945 15.9152 5.41416 15.801C5.16887 15.6869 4.97809 15.5444 4.84182 15.3735C4.70555 15.2026 4.67829 15.0108 4.76005 14.7982L6.55885 10.1753L0.549246 7.06889C0.276702 6.92213 0.106634 6.75483 0.0390433 6.56697C-0.0285477 6.37912 -0.00837953 6.19584 0.099548 6.01712C0.207475 5.8384 0.371002 5.69164 0.590127 5.57684C0.809253 5.46204 1.10905 5.38866 1.48952 5.3567L9.42056 4.94089L12.4867 0.587036C12.623 0.391357 12.8344 0.244598 13.1212 0.146759C13.4079 0.0489195 13.7006 0 13.9993 0C14.298 0 14.5907 0.0489195 14.8774 0.146759C15.1642 0.244598 15.3757 0.391357 15.5119 0.587036L18.578 4.94089L26.5091 5.3567C26.8906 5.38932 27.1904 5.46269 27.4085 5.57684C27.6265 5.69099 27.79 5.83775 27.8991 6.01712C28.0081 6.19649 28.0288 6.3801 27.9612 6.56795C27.8936 6.7558 27.723 6.92278 27.4494 7.06889L21.4398 10.1753L23.2386 14.7982C23.3203 15.0102 23.2931 15.2019 23.1568 15.3735C23.0205 15.545 22.8297 15.6876 22.5844 15.801C22.3392 15.9145 22.053 15.9798 21.7259 15.9967C21.3989 16.0137 21.0855 15.9648 20.7857 15.85L13.9993 13.404Z"
        fill="white" fill-opacity="0.87" />
</svg>