<svg width="30" height="18" viewBox="0 0 30 18" fill="none" xmlns="http://www.w3.org/2000/svg">
<g clip-path="url(#clip0_180_86)">
<path d="M20.4427 9.88878C18.9988 9.88878 17.6139 10.2166 16.5929 10.8C15.5719 11.3835 14.9983 12.1748 14.9983 12.9999M14.9983 12.9999V13.8888M14.9983 12.9999C14.9983 12.1748 14.4247 11.3835 13.4036 10.8C12.3826 10.2166 10.9978 9.88878 9.55382 9.88878M14.9983 12.9999V4.11111C14.9983 3.28599 14.4247 2.49467 13.4036 1.91122C12.3826 1.32778 10.9978 1 9.55382 1C8.10986 1 6.72505 1.32778 5.70402 1.91122C4.68298 2.49467 4.10938 3.28599 4.10938 4.11111V6.6M14.9983 13.8888C14.9983 14.7139 15.5719 15.5052 16.5929 16.0887C17.6139 16.6721 18.9988 16.9999 20.4427 16.9999C21.8867 16.9999 23.2715 16.6721 24.2925 16.0887C25.3135 15.5052 25.8872 14.7139 25.8872 13.8888V12.2888M14.9983 13.8888C14.9983 14.7139 14.4247 15.5052 13.4036 16.0887C12.3826 16.6721 10.9978 16.9999 9.55382 16.9999C8.10986 16.9999 6.72505 16.6721 5.70402 16.0887C4.68298 15.5052 4.10938 14.7139 4.10938 13.8888V12.2888M23.5551 12.5559C24.9991 12.5559 26.3839 12.2281 27.4049 11.6446C28.426 11.0612 28.9996 10.2699 28.9996 9.44475C28.9996 8.61963 28.426 7.82831 27.4049 7.24486C26.3839 6.66141 24.9991 6.33364 23.5551 6.33364H22.7773M25.8889 6.6V4.11111C25.8889 3.28599 25.3153 2.49467 24.2943 1.91122C23.2732 1.32778 21.8884 1 20.4444 1C19.0005 1 17.6157 1.32778 16.5946 1.91122C15.5736 2.49467 15 3.28599 15 4.11111M6.44444 12.5556C5.00049 12.5556 3.61567 12.2278 2.59464 11.6443C1.57361 11.0609 1 10.2696 1 9.44445C1 8.61933 1.57361 7.82801 2.59464 7.24456C3.61567 6.66112 5.00049 6.33334 6.44444 6.33334H7.22222" stroke="white" stroke-opacity="0.87" stroke-width="2" stroke-linecap="round" stroke-linejoin="round"/>
</g>
<defs>
<clipPath id="clip0_180_86">
<rect width="30" height="18" fill="white"/>
</clipPath>
</defs>
</svg>
