<svg width="30" height="18" viewBox="0 0 30 18" fill="none" xmlns="http://www.w3.org/2000/svg">
<g clip-path="url(#clip0_180_69)">
<path d="M19.9762 14.7372L19.8552 2.4562C19.8419 1.09968 19.0975 0.00722565 18.1925 0.016139L11.6385 0.0806948C10.7336 0.0896081 10.0108 1.19651 10.0242 2.55303L10.1452 14.834C10.1585 16.1905 10.9029 17.283 11.8079 17.2741L18.3619 17.2095C19.2668 17.2006 19.9896 16.0937 19.9762 14.7372Z" fill="white" stroke="white" stroke-linecap="round" stroke-linejoin="round"/>
<path d="M11.9799 14.2406L11.8795 4.04009C11.8684 2.91338 11.1983 2.00651 10.3828 2.01454L4.47626 2.07272C3.66074 2.08075 3.00863 3.00065 3.01973 4.12736L3.1202 14.3278C3.1313 15.4545 3.8014 16.3614 4.61692 16.3534L10.5234 16.2952C11.3389 16.2872 11.991 15.3673 11.9799 14.2406Z" stroke="white" stroke-linecap="round" stroke-linejoin="round"/>
<path d="M26.9799 14.2406L26.8795 4.04009C26.8684 2.91338 26.1983 2.00651 25.3828 2.01454L19.4763 2.07272C18.6607 2.08075 18.0086 3.00065 18.0197 4.12736L18.1202 14.3278C18.1313 15.4545 18.8014 16.3614 19.6169 16.3534L25.5234 16.2952C26.3389 16.2872 26.991 15.3673 26.9799 14.2406Z" stroke="white" stroke-linecap="round" stroke-linejoin="round"/>
<rect x="11" y="1" width="8" height="8" rx="1" fill="#D9D9D9"/>
</g>
<defs>
<clipPath id="clip0_180_69">
<rect width="30" height="18" fill="white"/>
</clipPath>
</defs>
</svg>
