<svg width="30" height="18" viewBox="0 0 30 18" fill="none" xmlns="http://www.w3.org/2000/svg">
<path d="M7.33746 17H23.6672C24.9556 17 25.9998 16.2041 25.9995 15.2223L25.9959 2.77804C25.9956 1.79622 24.9509 1.00029 23.6625 1.00029L7.33282 1.00029C6.04444 1.00029 5.00023 1.79622 5.00052 2.77804L5.00412 15.2223C5.00441 16.2041 6.04908 17 7.33746 17Z" stroke="white" stroke-width="2" stroke-linecap="round" stroke-linejoin="round"/>
<path d="M25.9468 9.17705C25.9469 9.64058 25.7031 10.0851 25.2689 10.4129C24.8348 10.7407 24.2459 10.9248 23.6317 10.9248L7.42313 10.9248C6.80901 10.9248 6.22 10.7407 5.78566 10.4129C5.35132 10.0851 5.10724 9.64058 5.1071 9.17705" stroke="white" stroke-width="2" stroke-linecap="round" stroke-linejoin="round"/>
<path d="M26.0129 11.8789C26.0036 12.4808 25.7487 13.0532 25.3045 13.47C24.8603 13.8868 24.2631 14.114 23.6443 14.1016L7.3116 13.774C6.69278 13.7616 6.10305 13.5106 5.67212 13.0762C5.24119 12.6418 5.00437 12.0596 5.01377 11.4577" stroke="white" stroke-width="2" stroke-linecap="round" stroke-linejoin="round"/>
</svg>
