<svg width="28" height="20" viewBox="0 0 28 20" fill="none" xmlns="http://www.w3.org/2000/svg">
<path d="M18.667 10.8334L24.7605 13.7351C24.8483 13.7768 24.9504 13.8008 25.0558 13.8044C25.1612 13.808 25.266 13.7911 25.359 13.7555C25.452 13.7199 25.5298 13.667 25.584 13.6024C25.6383 13.5377 25.6669 13.4638 25.667 13.3884V6.55839C25.667 6.48508 25.64 6.41306 25.5886 6.3496C25.5372 6.28614 25.4632 6.23349 25.3742 6.19697C25.2852 6.16045 25.1843 6.14136 25.0817 6.1416C24.979 6.14185 24.8783 6.16144 24.7897 6.19839L18.667 8.75006" fill="white"/>
<path d="M18.667 10.8334L24.7605 13.7351C24.8483 13.7768 24.9504 13.8008 25.0558 13.8044C25.1612 13.808 25.266 13.7911 25.359 13.7555C25.452 13.7199 25.5298 13.667 25.584 13.6024C25.6383 13.5377 25.6669 13.4638 25.667 13.3884V6.55839C25.667 6.48508 25.64 6.41306 25.5886 6.3496C25.5372 6.28614 25.4632 6.23349 25.3742 6.19697C25.2852 6.16045 25.1843 6.14136 25.0817 6.1416C24.979 6.14185 24.8783 6.16144 24.7897 6.19839L18.667 8.75006" stroke="white" stroke-width="2" stroke-linecap="round" stroke-linejoin="round"/>
<path d="M16.333 5H4.66634C3.37768 5 2.33301 5.74619 2.33301 6.66667V13.3333C2.33301 14.2538 3.37768 15 4.66634 15H16.333C17.6217 15 18.6663 14.2538 18.6663 13.3333V6.66667C18.6663 5.74619 17.6217 5 16.333 5Z" fill="white" stroke="white" stroke-width="2" stroke-linecap="round" stroke-linejoin="round"/>
</svg>
